<svg id="Layer_1" data-name="Layer 1" xmlns="http://www.w3.org/2000/svg" xmlns:xlink="http://www.w3.org/1999/xlink" viewBox="0 0 5046.92 5046.92"><defs><style>.cls-1,.cls-10,.cls-21,.cls-23,.cls-9{fill:#fff;}.cls-2{fill:#3fa9f5;opacity:0.3;}.cls-10,.cls-14,.cls-18,.cls-2,.cls-21,.cls-3,.cls-4,.cls-8,.cls-9{isolation:isolate;}.cls-3,.cls-5{fill:#006837;}.cls-3{opacity:0.4;}.cls-4{fill:blue;opacity:0.75;}.cls-6{fill:url(#linear-gradient);}.cls-7{fill:#6c63ff;}.cls-10,.cls-8{opacity:0.1;}.cls-9{opacity:0.45;}.cls-11{font-size:90px;font-family:Helvetica;}.cls-12{fill:#c69c6d;}.cls-13{fill:#4c4c78;}.cls-14{opacity:0.05;}.cls-15{fill:#1b1464;}.cls-16{fill:#f2f2f2;}.cls-17{fill:#3f3d56;}.cls-18{opacity:0.2;}.cls-19{fill:#7ac943;}.cls-20{fill:#2f2e41;}.cls-22{fill:red;opacity:0.8;}.cls-23{font-size:100px;font-family:FugazOne-Regular, Fugaz One;letter-spacing:0.05em;}.cls-24{letter-spacing:0.05em;}.cls-25,.cls-29,.cls-30{fill:none;stroke:#000;stroke-miterlimit:10;}.cls-25{stroke-width:10px;}.cls-26{fill:#f5c525;}.cls-27{fill:#f8a805;}.cls-28{opacity:0.5;}.cls-29{stroke-linecap:square;}.cls-29,.cls-30{stroke-width:5px;}.cls-30{stroke-linecap:round;}</style><linearGradient id="linear-gradient" x1="2598.5" y1="1511.83" x2="2598.5" y2="2545.11" gradientTransform="matrix(1, 0, 0, -1, -67.69, 4951.47)" gradientUnits="userSpaceOnUse"><stop offset="0" stop-color="gray" stop-opacity="0.25"/><stop offset="0.54" stop-color="gray" stop-opacity="0.12"/><stop offset="1" stop-color="gray" stop-opacity="0.1"/></linearGradient></defs><circle class="cls-1" cx="2523.53" cy="2523.43" r="2300"/><path class="cls-2" d="M2503,4592.5c1155.66,0,2092.5-936.84,2092.5-2092.5,0-333.36-78-648.5-216.63-928.21-1191.71,203.57-2477.29,330.13-3672,80.61a639.11,639.11,0,0,0-111.63-13.3c-118.68,262.57-184.74,554-184.74,860.9C410.5,3655.66,1347.34,4592.5,2503,4592.5Z" transform="translate(23.53 23.43)"/><path class="cls-3" d="M4482.58,1824.36a2087.86,2087.86,0,0,0-91.73-219.87,1170.16,1170.16,0,0,0-463-34.44c-328.44,41.37-893.45,84.25-1144.19-64.91-364.56-216.9-1292.18,78.44-1292.18,78.44v240S3654.08,1850.81,4482.58,1824.36Z" transform="translate(23.53 23.43)"/><path class="cls-4" d="M4449.88,1739.19C4145.52,959.71,3387.25,407.5,2500,407.5c-943.93,0-1741.87,625-2002.57,1483.77q30.6,1.27,61.31,1.17c142.16-.53,283-25,423.14-48.26C2105.88,1658.7,3314.12,1540.42,4449.88,1739.19Z" transform="translate(23.53 23.43)"/><path class="cls-5" d="M3086.46,1594.71S2057.34,1784,1692.74,1567.05c-246.51-146.53-750.49-59.18-1051,12.92a319,319,0,0,0-32.59,9.65A2087,2087,0,0,0,492.4,1886.36c533,6.06,3204.62,33.32,3217.07-28.75C3723.31,1788.65,3086.46,1594.71,3086.46,1594.71Z" transform="translate(23.53 23.43)"/><path class="cls-6" d="M3739.51,2850.82l-3,.26.94-2.34-3.77,1.55,3.77-9.92s-12.26,4.94-35,13c-557.49,26-1724-447-1724-447L1332.75,2495a138.08,138.08,0,0,1-10.64-11.13l2.87,11.65c-1-1.1-2-2.2-2.87-3.28l1,4.08h-1l1.59,2.18,73.89,299.7s1316.75,725.51,2109.21,633.3l225.59-570.13Z" transform="translate(23.53 23.43)"/><path class="cls-7" d="M1998.79,2425.49s1175.28,476.43,1696.29,428l-347.33,517-1256-391.77-614-278.68,286.65-193.86Z" transform="translate(23.53 23.43)"/><path class="cls-8" d="M1998.79,2425.49s1175.28,476.43,1696.29,428l-347.33,517-1256-391.77-614-278.68,286.65-193.86Z" transform="translate(23.53 23.43)"/><polygon class="cls-9" points="1975.85 2592.16 2288.86 2662.84 1650.73 2775.92 1501.3 2642.63 1975.85 2592.16"/><polygon class="cls-9" points="2115.17 2880.92 2484.76 2745.63 2745.26 2832.45 2288.86 3002.1 2115.17 2880.92"/><polygon class="cls-9" points="2624.08 3034.39 3029.99 2923.35 3391.46 3022.28 3007.77 3151.54 2624.08 3034.39"/><polygon class="cls-7" points="1390.22 2535.63 2022.31 2448.8 2022.31 2602.27 1493.23 2678.99 1390.22 2535.63"/><polygon class="cls-10" points="1394.26 2543.7 2022.31 2448.8 2022.31 2602.27 1493.23 2678.99 1394.26 2543.7"/><path class="cls-8" d="M1366.7,2500.05l72.67,294.83s1268.22,698.74,2031.57,609.88l222.15-561.41s-547.5,221.32-1128.48,119.56a577.63,577.63,0,0,1-65.93-15.73C2325.07,2895.21,1482.52,2637.6,1366.7,2500.05Z" transform="translate(23.53 23.43)"/><text class="cls-11" transform="translate(2158.53 454.12) rotate(-9.07)">A</text><text class="cls-11" transform="translate(2226.25 443.32) rotate(-7.29)">C</text><text class="cls-11" transform="matrix(1, -0.09, 0.09, 1, 2299.17, 434.21)">T</text><text class="cls-11" transform="matrix(1, -0.06, 0.06, 1, 2362.36, 428.21)">G</text><text class="cls-11" transform="translate(2440.65 423.6) rotate(-1.44)">C</text><text class="cls-11" transform="translate(2514.13 421.97) rotate(0.43)">T</text><text class="cls-11" transform="translate(2577.61 422.46) rotate(2.38)">G</text><text class="cls-11" transform="translate(2655.96 425.95) rotate(4.39)">A</text><text class="cls-11" transform="matrix(0.99, 0.1, -0.1, 0.99, 2717.76, 430.76)">T</text><text class="cls-11" transform="translate(2780.86 437.47) rotate(7.91)">C</text><text class="cls-11" transform="translate(2853.61 447.69) rotate(10)">G</text><text class="cls-11" transform="translate(2930.86 461.58) rotate(11.95)">T</text><text class="cls-11" transform="matrix(0.97, 0.23, -0.23, 0.97, 2986.49, 473.34)">A</text><text class="cls-11" transform="translate(3053.07 489.48) rotate(15.59)">G</text><text class="cls-11" transform="matrix(0.95, 0.3, -0.3, 0.95, 3128.58, 510.76)">C</text><text class="cls-11" transform="translate(3198.54 533.27) rotate(19.54)">T</text><text class="cls-11" transform="translate(3252.19 552.3) rotate(21.16)">A</text><text class="cls-11" transform="matrix(0.92, 0.39, -0.39, 0.92, 3316.02, 577.08)">G</text><text class="cls-11" transform="matrix(0.9, 0.43, -0.43, 0.9, 3388.1, 608.13)">C</text><text class="cls-11" transform="translate(3454.48 639.66) rotate(27.09)">T</text><text class="cls-11" transform="translate(3505.15 665.57) rotate(28.71)">A</text><text class="cls-11" transform="translate(3565.2 698.52) rotate(30.7)">G</text><text class="cls-11" transform="translate(3632.55 738.74) rotate(32.76)">C</text><text class="cls-11" transform="translate(3694.27 778.72) rotate(34.62)">T</text><text class="cls-11" transform="matrix(0.81, 0.59, -0.59, 0.81, 3741.1, 811.03)">A</text><text class="cls-11" transform="translate(3796.31 851.55) rotate(38.22)">G</text><text class="cls-11" transform="translate(3857.83 900.24) rotate(40.28)">C</text><text class="cls-11" transform="matrix(0.74, 0.67, -0.67, 0.74, 3913.77, 947.93)">T</text><text class="cls-11" transform="matrix(0.72, 0.69, -0.69, 0.72, 3955.97, 986.1)">A</text><text class="cls-11" transform="matrix(0.7, 0.72, -0.72, 0.7, 4005.43, 1033.53)">G</text><text class="cls-11" transform="matrix(0.67, 0.74, -0.74, 0.67, 4060.01, 1089.84)">C</text><text class="cls-11" transform="matrix(0.65, 0.76, -0.76, 0.65, 4109.22, 1144.47)">T</text><text class="cls-11" transform="matrix(0.63, 0.78, -0.78, 0.63, 4146.06, 1187.87)">A</text><text class="cls-11" transform="matrix(0.6, 0.8, -0.8, 0.6, 4188.82, 1241.36)">G</text><text class="cls-11" transform="translate(4235.52 1304.38) rotate(55.4)">C</text><text class="cls-11" transform="matrix(0.54, 0.84, -0.84, 0.54, 4277.07, 1365.01)">T</text><text class="cls-11" transform="matrix(0.52, 0.86, -0.86, 0.52, 4307.83, 1412.86)">A</text><text class="cls-11" transform="translate(4343.16 1471.57) rotate(60.93)">G</text><text class="cls-11" transform="matrix(0.45, 0.89, -0.89, 0.45, 4381.11, 1540.22)">C</text><text class="cls-11" transform="translate(4414.24 1605.79) rotate(64.9)">T</text><text class="cls-11" transform="translate(4438.41 1657.35) rotate(66.53)">A</text><text class="cls-11" transform="matrix(0.37, 0.93, -0.93, 0.37, 4465.63, 1720.18)">G</text><text class="cls-11" transform="translate(4494.14 1793.28) rotate(70.62)">C</text><text class="cls-11" transform="translate(4518.32 1862.68) rotate(72.49)">T</text><text class="cls-11" transform="translate(4535.44 1916.94) rotate(74.11)">A</text><text class="cls-11" transform="matrix(0.24, 0.97, -0.97, 0.24, 4554.13, 1982.85)">G</text><text class="cls-11" transform="matrix(0.21, 0.98, -0.98, 0.21, 4572.78, 2059.04)">C</text><text class="cls-11" transform="translate(4587.23 2131.12) rotate(79.07)">T</text><text class="cls-11" transform="translate(4597.56 2187.06) rotate(81.58)">A</text><text class="cls-11" transform="matrix(0.11, 0.99, -0.99, 0.11, 4607.54, 2254.86)">G</text><text class="cls-11" transform="translate(4616.15 2332.81) rotate(85.61)">C</text><text class="cls-11" transform="translate(4621.56 2406.12) rotate(87.48)">T</text><text class="cls-11" transform="matrix(0.02, 1, -1, 0.02, 4624.07, 2462.96)">A</text><text class="cls-11" transform="matrix(-0.02, 1, -1, -0.02, 4625.09, 2531.46)">G</text><text class="cls-11" transform="matrix(-0.06, 1, -1, -0.06, 4623.37, 2609.86)">C</text><text class="cls-11" transform="translate(4619.05 2683.23) rotate(95.07)">T</text><text class="cls-11" transform="matrix(-0.12, 0.99, -0.99, -0.12, 4614.03, 2739.93)">A</text><text class="cls-11" transform="translate(4605.97 2807.95) rotate(98.73)">G</text><text class="cls-11" transform="matrix(-0.19, 0.98, -0.98, -0.19, 4593.86, 2885.47)">C</text><text class="cls-11" transform="translate(4579.85 2957.62) rotate(102.69)">T</text><text class="cls-11" transform="translate(4567.36 3013.12) rotate(104.32)">A</text><text class="cls-11" transform="matrix(-0.28, 0.96, -0.96, -0.28, 4550.36, 3079.47)">G</text><text class="cls-11" transform="translate(4528.1 3154.68) rotate(108.41)">C</text><text class="cls-11" transform="translate(4504.68 3224.34) rotate(110.29)">T</text><text class="cls-11" transform="translate(4484.95 3277.74) rotate(111.91)">A</text><text class="cls-11" transform="matrix(-0.41, 0.91, -0.91, -0.41, 4459.34, 3341.26)">G</text><text class="cls-11" transform="translate(4427.37 3412.89) rotate(115.97)">C</text><text class="cls-11" transform="translate(4394.97 3478.89) rotate(117.83)">T</text><text class="cls-11" transform="translate(4365.33 3534.99) rotate(119.76)">G</text><text class="cls-11" transform="translate(4326.18 3602.98) rotate(121.75)">A</text><text class="cls-11" transform="matrix(-0.55, 0.84, -0.84, -0.55, 4293.53, 3655.63)">T</text><text class="cls-11" transform="translate(4258.57 3708.61) rotate(125.22)">C</text><text class="cls-11" transform="translate(4216.13 3768.55) rotate(127.28)">G</text><text class="cls-11" transform="translate(4168.42 3830.84) rotate(129.27)">A</text><text class="cls-11" transform="translate(4129.15 3878.77) rotate(130.88)">T</text><text class="cls-11" transform="matrix(-0.68, 0.73, -0.73, -0.68, 4087.56, 3926.73)">C</text><text class="cls-11" transform="matrix(-0.7, 0.71, -0.71, -0.7, 4037.64, 3980.59)">G</text><text class="cls-11" transform="translate(3982.14 4036.09) rotate(136.74)">T</text><text class="cls-11" transform="translate(3940.73 4075.08) rotate(138.35)">A</text><text class="cls-11" transform="matrix(-0.77, 0.64, -0.64, -0.77, 3889.44, 4120.55)">C</text><text class="cls-11" transform="matrix(-0.79, 0.61, -0.61, -0.79, 3832.89, 4167.37)">G</text><text class="cls-11" transform="matrix(-0.81, 0.58, -0.58, -0.81, 3770.57, 4215.08)">T</text><text class="cls-11" transform="matrix(-0.83, 0.56, -0.56, -0.83, 3724.34, 4248.3)">A</text><text class="cls-11" transform="matrix(-0.85, 0.53, -0.53, -0.85, 3667.58, 4286.59)">G</text><text class="cls-11" transform="translate(3600.99 4328.05) rotate(150.04)">C</text><text class="cls-11" transform="translate(3537.18 4364.57) rotate(151.92)">T</text><text class="cls-11" transform="matrix(-0.9, 0.45, -0.45, -0.9, 3486.98, 4391.36)">A</text><text class="cls-11" transform="translate(3425.63 4421.8) rotate(155.58)">G</text><text class="cls-11" transform="translate(3354.12 4454.06) rotate(157.66)">C</text><text class="cls-11" transform="translate(3286.05 4481.79) rotate(159.54)">T</text><text class="cls-11" transform="translate(3226.61 4503.95) rotate(161.48)">G</text><text class="cls-11" transform="translate(3152.12 4528.66) rotate(163.48)">A</text><text class="cls-11" transform="matrix(-0.97, 0.26, -0.26, -0.97, 3092.71, 4546.21)">T</text><text class="cls-11" transform="translate(3031.34 4562.48) rotate(166.95)">C</text><text class="cls-11" transform="translate(2959.75 4578.97) rotate(168.99)">G</text><text class="cls-11" transform="translate(2882.69 4593.72) rotate(170.96)">A</text><text class="cls-11" transform="translate(2821.47 4603.41) rotate(172.55)">T</text><text class="cls-11" transform="translate(2758.52 4611.58) rotate(174.4)">C</text><text class="cls-11" transform="translate(2685.43 4618.64) rotate(176.46)">G</text><text class="cls-11" transform="translate(2607.08 4623.21) rotate(178.4)">T</text><text class="cls-11" transform="translate(2550.19 4624.81) rotate(-179.98)">A</text><text class="cls-11" transform="matrix(-1, -0.04, 0.04, -1, 2481.71, 4624.72)">G</text><text class="cls-11" transform="translate(2403.31 4621.74) rotate(-175.88)">C</text><text class="cls-11" transform="matrix(-0.99, -0.1, 0.1, -0.99, 2330.02, 4616.24)">T</text><text class="cls-11" transform="translate(2273.43 4610.29) rotate(-172.36)">A</text><text class="cls-11" transform="matrix(-0.99, -0.17, 0.17, -0.99, 2205.54, 4601.13)">G</text><text class="cls-11" transform="translate(2128.23 4587.78) rotate(-168.26)">C</text><text class="cls-11" transform="matrix(-0.97, -0.24, 0.24, -0.97, 2056.33, 4572.6)">T</text><text class="cls-11" transform="translate(2001.04 4559.21) rotate(-164.75)">A</text><text class="cls-11" transform="translate(1934.96 4541.14) rotate(-162.74)">G</text><text class="cls-11" transform="translate(1860.1 4517.67) rotate(-160.66)">C</text><text class="cls-11" transform="translate(1790.84 4493.13) rotate(-158.79)">T</text><text class="cls-11" transform="matrix(-0.92, -0.39, 0.39, -0.92, 1737.77, 4472.55)">A</text><text class="cls-11" transform="translate(1674.65 4445.91) rotate(-155.17)">G</text><text class="cls-11" transform="matrix(-0.89, -0.45, 0.45, -0.89, 1603.56, 4412.8)">C</text><text class="cls-11" transform="translate(1538.09 4379.36) rotate(-151.25)">T</text><text class="cls-11" transform="matrix(-0.86, -0.51, 0.51, -0.86, 1488.2, 4352)">A</text><text class="cls-11" transform="matrix(-0.84, -0.54, 0.54, -0.84, 1429.14, 4317.32)">G</text><text class="cls-11" transform="translate(1362.99 4275.19) rotate(-145.59)">C</text><text class="cls-11" transform="matrix(-0.81, -0.59, 0.59, -0.81, 1302.47, 4233.46)">T</text><text class="cls-11" transform="matrix(-0.79, -0.61, 0.61, -0.79, 1256.59, 4199.8)">A</text><text class="cls-11" transform="matrix(-0.77, -0.64, 0.64, -0.77, 1202.58, 4157.71)">G</text><text class="cls-11" transform="translate(1142.48 4107.26) rotate(-138.07)">C</text><text class="cls-11" transform="matrix(-0.72, -0.69, 0.69, -0.72, 1087.96, 4057.99)">T</text><text class="cls-11" transform="translate(1046.88 4018.61) rotate(-134.59)">A</text><text class="cls-11" transform="translate(998.83 3969.79) rotate(-132.59)">G</text><text class="cls-11" transform="matrix(-0.65, -0.76, 0.76, -0.65, 945.89, 3911.9)">C</text><text class="cls-11" transform="translate(898.3 3855.88) rotate(-128.65)">T</text><text class="cls-11" transform="translate(862.76 3811.45) rotate(-127.02)">A</text><text class="cls-11" transform="matrix(-0.57, -0.82, 0.82, -0.57, 821.56, 3756.73)">G</text><text class="cls-11" transform="translate(776.71 3692.35) rotate(-122.93)">C</text><text class="cls-11" transform="matrix(-0.52, -0.86, 0.86, -0.52, 736.96, 3630.57)">T</text><text class="cls-11" transform="translate(704.23 3576.18) rotate(-119.1)">G</text><text class="cls-11" transform="translate(666.28 3507.51) rotate(-117.08)">A</text><text class="cls-11" transform="translate(638.14 3452.33) rotate(-115.45)">T</text><text class="cls-11" transform="translate(610.92 3394.99) rotate(-113.57)">C</text><text class="cls-11" transform="translate(581.66 3327.63) rotate(-111.48)">G</text><text class="cls-11" transform="translate(553.14 3254.53) rotate(-109.47)">A</text><text class="cls-11" transform="translate(532.55 3196.07) rotate(-107.85)">T</text><text class="cls-11" transform="translate(513.15 3135.64) rotate(-105.98)">C</text><text class="cls-11" transform="translate(493.03 3065) rotate(-103.92)">G</text><text class="cls-11" transform="translate(474.41 2988.76) rotate(-102.01)">T</text><text class="cls-11" transform="translate(462.8 2932.9) rotate(-100.93)">A</text><text class="cls-11" transform="translate(450.23 2865.68) rotate(-98.45)">G</text><text class="cls-11" transform="translate(438.9 2788.05) rotate(-96.4)">C</text><text class="cls-11" transform="translate(430.92 2715.01) rotate(-94.55)">T</text><text class="cls-11" transform="translate(426.4 2658.27) rotate(-92.93)">A</text><text class="cls-11" transform="translate(422.95 2589.87) rotate(-90.93)">G</text><text class="cls-11" transform="translate(421.88 2511.41) rotate(-88.85)">C</text><text class="cls-11" transform="matrix(0.05, -1, 1, 0.05, 423.58, 2437.95)">T</text><text class="cls-11" transform="translate(426.95 2374.6) rotate(-85.02)">G</text><text class="cls-11" transform="translate(434 2296.42) rotate(-83)">A</text><text class="cls-11" transform="matrix(0.16, -0.99, 0.99, 0.16, 442.45, 2228.46)">C</text><text class="cls-11" transform="translate(454.1 2155.88) rotate(-79.17)">T</text><text class="cls-11" transform="translate(466.05 2093.54) rotate(-77.22)">G</text><text class="cls-11" transform="matrix(0.26, -0.97, 0.97, 0.26, 483.64, 2017.08)">A</text><text class="cls-11" transform="translate(499.52 1957.22) rotate(-73.58)">T</text><text class="cls-11" transform="translate(517.52 1896.35) rotate(-71.7)">C</text><text class="cls-11" transform="matrix(0.35, -0.94, 0.94, 0.35, 540.68, 1826.63)">G</text><text class="cls-11" transform="translate(568.21 1753.18) rotate(-67.63)">A</text><text class="cls-11" transform="translate(591.87 1695.88) rotate(-66.01)">T</text><text class="cls-11" transform="matrix(0.44, -0.9, 0.9, 0.44, 617.68, 1637.93)">G</text><text class="cls-11" transform="matrix(0.47, -0.88, 0.88, 0.47, 652.16, 1567.45)">C</text><text class="cls-11" transform="translate(686.82 1502.68) rotate(-60.16)">T</text><text class="cls-11" transform="translate(715.15 1453.3) rotate(-58.54)">A</text><text class="cls-11" transform="translate(750.93 1394.92) rotate(-56.55)">G</text><text class="cls-11" transform="translate(794.35 1329.55) rotate(-54.49)">C</text><text class="cls-11" transform="translate(837.21 1269.86) rotate(-52.64)">T</text><text class="cls-11" transform="translate(871.74 1224.62) rotate(-51.03)">A</text><text class="cls-11" transform="translate(914.85 1171.43) rotate(-49.03)">G</text><text class="cls-11" transform="matrix(0.68, -0.73, 0.73, 0.68, 966.45, 1112.3)">C</text><path class="cls-12" d="M2390.05,2772.25a135.67,135.67,0,0,0,1.95,60.13,16.77,16.77,0,0,1-11.84,20.55,18.14,18.14,0,0,1-3.27.54c-27.21,1.62-72.47,4.62-93.43,7.62-31.09,4.43-62.19-31.1-26.66-26.66s66.62-35.53,66.62-35.53,40-22.22,22.22-151c-7.07-51.26-6.39-77.21-3.06-89.85a20.28,20.28,0,0,1,4.13-8.75h0a6.71,6.71,0,0,1,3.55-2.14,10.59,10.59,0,0,1,8.54,3.06s57.75,53.3,62.18,66.62c1.11,3.27.31,11.78-1.68,23.29C2413.49,2675.21,2396.75,2738.8,2390.05,2772.25Z" transform="translate(23.53 23.43)"/><path class="cls-8" d="M2419.45,2640.07a77.9,77.9,0,0,0-11.62,12.25c-32.75-4.1-57.93-76.05-65.16-94.29-.61-1.56-1.1-2.72-1.47-3.43s1.57-2.78,5.61-5.32h0l3.54-2.14a10.58,10.58,0,0,1,8.54,3.06s57.75,53.3,62.19,66.62C2422.24,2620.09,2421.44,2628.57,2419.45,2640.07Z" transform="translate(23.53 23.43)"/><path class="cls-13" d="M2558.82,2452.45s-217.65,88.75-213.21,97.71,31.09,93.28,66.62,97.72c0,0,22.22-31.09,53.31-26.66s133.25-88.74,133.25-88.74l71.05-53.31Z" transform="translate(23.53 23.43)"/><path class="cls-12" d="M2780.93,3092.07c-4.44,13.31-159.9,8.88-159.9,8.88-22.21-17.78,31.1-31.09,31.1-31.09,66.62-13.32-4.44-115.5-4.44-115.5l-80.49-124.27-17.35-26.87s22.22-31.1,62.19-26.66c9.18,1,18.57,7.32,27.35,16.71,29.05,30.91,52.61,95.05,52.61,112.1,0,9.73,8.54,39.78,18.09,70.66,12.42,40,36.08,75.1,65.7,104.69C2779.8,3084.85,2782,3088.74,2780.93,3092.07Z" transform="translate(23.53 23.43)"/><path class="cls-14" d="M2558.82,2452.45s-217.65,88.75-213.21,97.71,31.09,93.28,66.62,97.72c0,0,22.22-31.09,53.31-26.66s133.25-88.74,133.25-88.74l71.05-53.31Z" transform="translate(23.53 23.43)"/><path class="cls-8" d="M2643.22,2807.78c0,18.51-47.13,22-75.92,22.43l-17.36-26.87s22.22-31.09,62.19-26.66c9.18,1,18.57,7.32,27.36,16.71C2641.51,2802.24,2643.22,2807.78,2643.22,2807.78Z" transform="translate(23.53 23.43)"/><path class="cls-13" d="M2541.07,2474.67s-53.31,226.46-35.53,275.42,35.53,71.06,35.53,71.06,97.71,4.44,97.71-22.22c0,0-22.21-71.06,0-111a145.8,145.8,0,0,0,10.68-24.12,286.87,286.87,0,0,1,47.47-89.14c10.8-13.35,19.06-28.43,17.35-42.2C2709.84,2496.86,2541.07,2474.67,2541.07,2474.67Z" transform="translate(23.53 23.43)"/><path class="cls-15" d="M1366.7,2508.12,1439.37,2803s1268.18,698.7,2031.53,609.88l222.15-561.41S3145.56,3072.74,2564.57,2971a578.14,578.14,0,0,1-65.93-15.73C2325.07,2903.28,1482.52,2645.68,1366.7,2508.12Z" transform="translate(23.53 23.43)"/><path class="cls-12" d="M2150.93,2155.46a23.88,23.88,0,0,0,33.49-4.35,25.36,25.36,0,0,0,2.26-3.55l209.63-58,27.85-82.56-249.07,107.34a24,24,0,0,0-24.16,41.11Z" transform="translate(23.53 23.43)"/><path class="cls-16" d="M2520.42,2019.4s-4.09-2.82-19.33,19.14c-18.91,27.26-160.43,110.1-192.5,77.73a18.75,18.75,0,0,1-17.26,15.19l-9.4-61c8.81-10.87,13.14-17.47,16.84-13.41l32.21-23.93L2481.67,1967l34.46,44.39Z" transform="translate(23.53 23.43)"/><polygon class="cls-16" points="2498.82 1989.7 2579.41 1982.73 2654.96 2017.26 2697.38 2604.12 2530.9 2527.12 2459.47 2546.89 2498.82 1989.7"/><path class="cls-17" d="M2718.48,2255.27l-8-16c-9.78-60.59-19.44-117.11-6.31-167.95.82-44.38-12.9-86.07-51-108.84L2636,1952.23l-8.7-22.06-80.09,1.95L2547,1961l-28.69,45.75v.19l1.8,248.93,7.91,25.69-11.94,29.88,6.34,19.07,157.88-25.24,18.36-2.95a33.14,33.14,0,0,0,6.11-2.66,33.54,33.54,0,0,0,14.65-16.38c.17-.4.31-.78.45-1.18A32.66,32.66,0,0,0,2722,2272,33.66,33.66,0,0,0,2718.48,2255.27Z" transform="translate(23.53 23.43)"/><path class="cls-18" d="M2722,2272a32.66,32.66,0,0,1-2.12,10.14l-15.11,17.56a32.76,32.76,0,0,1-6.1,2.66l-18.36,2.95,26.56-49.94-58.38-127.82Z" transform="translate(23.53 23.43)"/><polygon class="cls-16" points="2578.96 1982.63 2659.54 1975.65 2735.09 2010.19 2777.51 2597.05 2611.03 2520.05 2539.6 2539.82 2578.96 1982.63"/><path class="cls-12" d="M2505.13,2367.63a23.88,23.88,0,0,0,12.95-31.19,25,25,0,0,0-1.94-3.74l83.12-75.51,29.16-112.81-51.75-4.3-15.82,88.52-79.27,97.56a24,24,0,0,0,23.55,41.47Z" transform="translate(23.53 23.43)"/><path class="cls-16" d="M2636.4,2042.51s12.61.19,6.93,26.31c-4.55,20.91-21.8,138.57-35.58,164.9a18.74,18.74,0,0,1,4.55,22.54l-57.57-22.33c-5-13.06,3.39-17.12,8.76-18.29l-1-41,8.25-104.42,56.59-28Z" transform="translate(23.53 23.43)"/><path class="cls-12" d="M2653.36,1849.21a74.59,74.59,0,0,1-147.81-20.12l.14-1.06a74.59,74.59,0,0,1,147.64,21.18Z" transform="translate(23.53 23.43)"/><rect x="2165.57" y="1723.12" width="22.95" height="852.74" transform="translate(-792.78 2805.09) rotate(-56.56)"/><path d="M973.63,985.24l-86.46-89.11,16.57-16.08,86.46,89.12ZM989.32,970,974,954.21l7-6.76q12.22-11.88,11.56-24.81t-13.76-26.43q-14.37-14.81-27.86-16.47T925.17,890l-6.71,6.52L901.6,882.12l8.23-8q41.85-40.62,86.3,5.19,42,43.3.16,83.92Z" transform="translate(23.53 23.43)"/><path d="M1106.26,863.8l-19.51-19.42-8.18-8.89-11.86-13.67a11.53,11.53,0,0,0-11.92-4.07q-7.05,1.54-16.73,9.47l-18.3,15.07L1007,824.9l15.43-13q19.25-16.25,34.77-17t27.55,13.08l22.47,25.89,11-7,12.6,14.53ZM1083.12,885q-11.16,9.68-22.13,9.59t-19.73-10.2q-10.2-11.76-7.52-25.08t17.61-26.28a95.66,95.66,0,0,1,10.45-8,80.44,80.44,0,0,1,10.1-5.51l9.18,16.46a56.3,56.3,0,0,0-8.6,5.43q-3.51,2.76-7.21,6-13.87,12-7,20a8.46,8.46,0,0,0,7.23,3.27c2.77-.2,5.75-1.69,9-4.48a26.14,26.14,0,0,0,7.82-10.6,19.92,19.92,0,0,0,1-10.62,18.19,18.19,0,0,0-4.07-8.63l-3.78-4.36,18.1,15.79-5.62,4.87.48-4.12a26.28,26.28,0,0,1,6,12.55,20.81,20.81,0,0,1-2,12.35A37.18,37.18,0,0,1,1083.12,885Z" transform="translate(23.53 23.43)"/><path d="M1105.25,770.72l-13.32-17.22,68.75-53.19L1174,717.54Zm33.3,6.74-46.17-59.69,18.67-14.44L1157.22,763Zm64.56,9.43q-19,14.65-33.28,13.58t-27.27-17.82l-7.38-9.55,18.67-14.44,6,7.74q6.48,8.37,13.74,8.83t17.16-7.19a83.14,83.14,0,0,0,6.52-5.65q3.33-3.18,7.49-7.4l15.19,16.22q-3.92,4.37-7.92,8.12T1203.11,786.89Z" transform="translate(23.53 23.43)"/><path d="M1298.85,717.25l-17.21-21.49-7.12-9.75-10.25-14.92a11.53,11.53,0,0,0-11.39-5.38q-7.19.74-17.68,7.53l-19.88,12.92-10.74-18.72,16.8-11.23q21-14,36.46-13t25.91,16.1l19.41,28.25,11.69-5.69,10.89,15.85Zm-25.38,18.5q-12.18,8.37-23.07,7t-18.46-12.36q-8.81-12.82-4.65-25.76t20.45-24.13a94.75,94.75,0,0,1,11.29-6.8,79.07,79.07,0,0,1,10.65-4.35l7.28,17.39a56.85,56.85,0,0,0-9.16,4.43q-3.79,2.34-7.83,5.12-15.13,10.39-9.2,19a8.49,8.49,0,0,0,6.83,4.07q4.14.16,9.41-3.44a26.13,26.13,0,0,0,9-9.66,20,20,0,0,0,2.22-10.44,18.14,18.14,0,0,0-3.07-9l-3.27-4.76,16.2,17.72-6.12,4.21.94-4a26.31,26.31,0,0,1,4.57,13.14,20.75,20.75,0,0,1-3.34,12.05A36.91,36.91,0,0,1,1273.47,735.75Z" transform="translate(23.53 23.43)"/><path d="M1300,592.27l-11-18.17,72.82-44.17,11,18.17Zm53.38,88L1289,574.1l19.74-12,64.39,106.16Zm-24-39.55-11.11-18.31,58.09-35.24,11.11,18.32Z" transform="translate(23.53 23.43)"/><path d="M1427.41,554.37l-10.26-19.31,46.48-24.7,10.26,19.3Zm19-49a14.39,14.39,0,1,1,7.69-8.84A14.75,14.75,0,0,1,1446.41,505.35Zm39.87,97.94-41-77.22L1466.09,515l41,77.22ZM1456,619.37l-10.26-19.3,31.82-16.91,10.26,19.31ZM1505.59,593l-10.26-19.31,25.79-13.7,10.26,19.3Z" transform="translate(23.53 23.43)"/><path d="M1594,551.43q-9.61,4.43-17.31,7.25a115.25,115.25,0,0,1-13.89,4.23l-6.93-21.74q10.59-3.33,17.71-5.85t11-4.3q10.8-5,15-8.68c2.77-2.47,3.67-4.79,2.67-7a4.36,4.36,0,0,0-2.59-2.47,10.92,10.92,0,0,0-4.69-.15l-31,4.68q-9.56,1.42-16.13-1.67t-10.49-11.58q-6.25-13.57,2.13-25.48t31.65-22.62q5.4-2.49,11.42-4.78t12.9-4.5l6.88,21q-7.53,2.69-13,4.94t-9.24,4q-12.48,5.75-17.43,9.71t-3.5,7.15a4.41,4.41,0,0,0,2.56,2.53,9.93,9.93,0,0,0,4.44.12l26.59-4.35q12.22-2.08,20.17,1.05T1625,505q6.18,13.43-1.44,24.88T1594,551.43Z" transform="translate(23.53 23.43)"/><path d="M1674.65,513.69l-48-122,22.05-8.68,48,122Zm51-20.08-20.5-52.07q-2.85-7.25-7.6-9.88t-10.69-.31q-16.61,6.54-7.67,29.24l-15.36-24.21,7.16-2.82q-2.21-9.19.84-15.32t12.63-9.91q13.68-5.37,24.43,0t16.71,20.49l22.1,56.14Z" transform="translate(23.53 23.43)"/><path d="M1769.93,401.76,1763.09,381l50-16.48,6.85,20.76Zm27-45.09a14.39,14.39,0,1,1,9.07-7.41A14.79,14.79,0,0,1,1797,356.67Zm-9.84,114-6.84-20.76,34.21-11.28,6.85,20.77Zm32.56-10.73-27.38-83,22.42-7.4,27.38,83.05Zm20.76-6.84-6.84-20.76,27.73-9.15,6.85,20.76Z" transform="translate(23.53 23.43)"/><path d="M1903.21,433.67l-24-89.52,20.44-5.48,7.52,18.26,18.93,70.61Zm53-14.2-14.11-52.61q-2.17-8.12-6.69-11.61t-10.68-1.84q-17.22,4.62-10.57,29.45l-12.91-27.23,7.43-2q-1.16-9.37,2.55-15.13t13.68-8.42q14.19-3.79,24.27,2.73t14.29,22.24l15.63,58.28Z" transform="translate(23.53 23.43)"/><path d="M2050.32,399q-16.86,3.53-28.77-6.68t-16.64-32.89q-4.7-22.5,2.1-36.79t23.84-17.84q10.35-2.16,16.64,1.22t9.83,12.2l6.68-1.39.74,30.12q-2.74-13.19-8.42-18.34t-14.58-3.3q-8.82,1.85-12.23,9.47t-.89,19.71q2.61,12.5,8.59,17.86t15.06,3.46q9.93-2.07,12.58-8.87t-.11-20l12.18,27.56-8,1.68q.52,9.36-4.27,15.09T2050.32,399Zm-18.61,44.79-5.07-20,28.92-6.93q11.91-2.83,16-10.26t1.52-19.65l-13.82-66.26L2057,301.17l21.49-4.48,17.25,82.69q5.05,24.22-3.93,38.11t-33.71,19.94Z" transform="translate(23.53 23.43)"/><path class="cls-19" d="M947,1805.69c9.15-8.5,17.75-18.54,20.38-30.77s-2.58-26.89-14.27-31.36c-13.07-5-27.09,4.07-37.68,13.22s-22.76,19.63-36.63,17.7A55.86,55.86,0,0,0,896,1722a21.93,21.93,0,0,0-5-10.59c-7.25-7.75-20.43-4.42-29.13,1.69-27.68,19.49-35.39,57.07-35.54,90.92-2.78-12.23-.45-24.85-.5-37.43s-3.48-26.39-14.06-33.11a42.39,42.39,0,0,0-21.43-5c-12.43-.44-26.3.8-34.8,10-10.53,11.28-7.8,30.27,1.35,42.75s23.16,20.23,36,28.83a79.83,79.83,0,0,1,25.75,24.56,24.54,24.54,0,0,1,1.89,4.37h78A217.1,217.1,0,0,0,947,1805.69Z" transform="translate(23.53 23.43)"/><path class="cls-19" d="M1356.49,1474.06c11.52-10.71,22.35-23.35,25.67-38.75s-3.26-33.87-18-39.5c-16.46-6.26-34.12,5.13-47.45,16.65s-28.67,24.72-46.14,22.28a70.28,70.28,0,0,0,21.72-66,27.51,27.51,0,0,0-6.26-13.34c-9.14-9.76-25.73-5.57-36.68,2.13-34.87,24.54-44.57,71.87-44.76,114.5-3.51-15.4-.56-31.3-.63-47.14s-4.38-33.24-17.71-41.69a53.28,53.28,0,0,0-27-6.26c-15.65-.56-33.12,1-43.83,12.52-13.27,14.21-9.82,38.12,1.7,53.84s29.17,25.48,45.38,36.31a100.65,100.65,0,0,1,32.43,30.92,30.87,30.87,0,0,1,2.38,5.51h98.22A273.62,273.62,0,0,0,1356.49,1474.06Z" transform="translate(23.53 23.43)"/><path class="cls-19" d="M1673.3,1814.06c11.52-10.71,22.35-23.35,25.66-38.75s-3.25-33.87-18-39.5c-16.47-6.26-34.12,5.13-47.46,16.65s-28.67,24.72-46.13,22.28a70.31,70.31,0,0,0,21.72-66,27.51,27.51,0,0,0-6.26-13.34c-9.14-9.76-25.73-5.57-36.68,2.13-34.87,24.54-44.58,71.87-44.76,114.5-3.51-15.4-.57-31.3-.63-47.14s-4.38-33.24-17.72-41.69a53.23,53.23,0,0,0-27-6.26c-15.65-.56-33.11,1-43.82,12.52-13.27,14.21-9.83,38.12,1.69,53.84s29.17,25.48,45.39,36.31a100.76,100.76,0,0,1,32.43,30.92,30.82,30.82,0,0,1,2.37,5.51h98.23A274.08,274.08,0,0,0,1673.3,1814.06Z" transform="translate(23.53 23.43)"/><path class="cls-20" d="M2634.37,1887.63c3.83-7.78,7.77-16.14,6.69-24.74s-9.51-16.83-17.8-14.28c-5,1.53-8.7,6.43-13.88,6.68-7.13.34-11.21-7.82-13.43-14.6l-9-27.62a74.75,74.75,0,0,1-62.07,14c-8.38-1.92-16.86-5.66-21.78-12.72s-4.89-18,1.86-23.35c3.31-2.61,7.71-3.61,10.87-6.4a12.19,12.19,0,0,0-9.73-21.21l22.75-2.84-6.78-12.26c4.89,3.85,11.68,4.37,17.81,3.26s11.88-3.62,17.87-5.3c28.74-8.07,62.15,6,76.51,32.13a29.14,29.14,0,0,1,31.76,9.17c6.08,7.73,7.74,18,8,27.88a121.07,121.07,0,0,1-12.33,56,45.91,45.91,0,0,1-10.36,14.69,20.75,20.75,0,0,1-16.64,5.44" transform="translate(23.53 23.43)"/><path class="cls-21" d="M1776.09,1110.48H1742a23.91,23.91,0,0,0,0-47.81H1465.49a23.91,23.91,0,0,0,0,47.81h34.14a23.9,23.9,0,0,0,0,47.8h-47.8a23.91,23.91,0,0,0,0,47.81h276.46a23.91,23.91,0,0,0,0-47.81h47.8a23.9,23.9,0,1,0,0-47.8Z" transform="translate(23.53 23.43)"/><path class="cls-21" d="M3381.22,828.25h-34.14a23.91,23.91,0,0,0,0-47.81H3070.62a23.91,23.91,0,0,0,0,47.81h34.15a23.91,23.91,0,0,0,0,47.81H3057a23.9,23.9,0,1,0,0,47.8h276.46a23.9,23.9,0,1,0,0-47.8h47.81a23.91,23.91,0,0,0,0-47.81Z" transform="translate(23.53 23.43)"/><path class="cls-21" d="M3734.22,1401.25h-34.14a23.91,23.91,0,0,0,0-47.81H3423.62a23.91,23.91,0,0,0,0,47.81h34.15a23.91,23.91,0,0,0,0,47.81H3410a23.9,23.9,0,1,0,0,47.8h276.46a23.9,23.9,0,1,0,0-47.8h47.81a23.91,23.91,0,0,0,0-47.81Z" transform="translate(23.53 23.43)"/><path d="M2002,4453.27q-20.61,0-33.59-8.54t-19.09-26.66q-6.11-18.12-6.11-46.93,0-82.12,50-82.13,44.15,0,44.14,53.32v36h-16.79v-35.45q0-36.33-27.35-36.33-33.59,0-33.59,64.55,0,34,10.06,49.27t32.32,15.28q12.21,0,19.24-2.44v17.58Q2013.52,4453.27,2002,4453.27Zm-3.32-38.18q-13,0-20.16-12.06t-7.18-33.94q0-23.15,7.18-34.52t20.36-11.38a17,17,0,0,1,12.94,5.91q5.42,5.91,7.57,16.75h7.22v46.58h-7.22q-1.77,10.84-7.18,16.75A17.6,17.6,0,0,1,1998.67,4415.09Zm5.67-18.56q7.8,0,12-5.91t4.2-16.74q0-16.8-3.81-24.47t-11-7.66a14.09,14.09,0,0,0-12.4,6.54q-4.4,6.54-4.39,20.8,0,13.09,4,20.27T2004.34,4396.53Zm16.21,16.6v-58.69h16.79v58.69Z" transform="translate(23.53 23.43)"/><path d="M2069.41,4301.22v-18.16h32.23v18.16Zm64.46,130.27q-18,0-26-9.76t-8-31.25V4283.06h20.71V4389.5a47.46,47.46,0,0,0,1.56,13.38,12.3,12.3,0,0,0,6.1,7.62q4.55,2.44,13.43,2.44,8.1,0,20.7-3.71l2.35,18.16a116.75,116.75,0,0,1-15.19,3.13A118.2,118.2,0,0,1,2133.87,4431.49Z" transform="translate(23.53 23.43)"/><path d="M2203.44,4474.46V4326h18.75l1.95,21.87v126.56Zm50.1-43q-11.92,0-19.19-5.46t-8.26-15.24h-9l7-29.49q0,16,6.3,24.32t18.51,8.3q12.5,0,18.94-8.89t6.45-26.27q0-18.36-6.45-27.73t-18.94-9.38q-12.21,0-18.51,8.3t-6.3,24.32l-7-29.49h8a21.77,21.77,0,0,1,8.84-15.24q7.47-5.46,19.58-5.47,20.4,0,30.85,13.87t10.45,40.82q0,26-10.45,39.36T2253.54,4431.49Z" transform="translate(23.53 23.43)"/><path d="M2322,4429.54v-18.16h69.14v18.16Zm3.91-85.35V4326h34.57l1.95,18.16Zm19.14,85.35V4326h16.8l3.9,29.68v73.83Zm20.7-44.53-6.05-32.42h8q1.77-28.52,28.52-28.52,16,0,23.24,9.18t7.23,29.69h-20.51q0-11.32-3.37-16.31t-10.89-5q-13.18,0-19.67,11.28T2365.78,4385Z" transform="translate(23.53 23.43)"/><path d="M2484.77,4431.49q-16.21,0-25.1-7.81t-8.89-22.07q0-16.41,12.26-25.19t34.62-8.79a109.23,109.23,0,0,1,16.55,1.12,59.92,59.92,0,0,1,12.94,3.37l-4.3,14.06a72.54,72.54,0,0,0-12.79-1.71q-6.26-.24-12.79-.24-27,0-27,16.4,0,6.84,4.64,10.55t13.14,3.71q9.66,0,16.16-3.32a23.74,23.74,0,0,0,9.71-8.49,19.9,19.9,0,0,0,3.23-10.65V4381.1l6,26.57H2515l3.32-3.13q0,9-4.15,15a24.92,24.92,0,0,1-11.67,9A48.27,48.27,0,0,1,2484.77,4431.49Zm36.52-1-1.37-30.67-2.73-8.59V4364.5q0-10.35-7.28-15.18t-21.63-5.23l-24.8-.68,1.95-18.36,20.9.29q25.68.39,38.13,11.09t12.45,31.2v43.16l17.58,2.15v16.6Z" transform="translate(23.53 23.43)"/><path d="M2584.51,4429.54V4283.06h20.7v144.72Zm27.74,1.95q-7,0-13.87-.53t-13.87-1.42l8-18.94a32.07,32.07,0,0,0,11.43,2.88q6.24.44,12.4.44,18.65,0,28.86-11.23t10.2-31.74q0-14.07-6.2-21.68t-17.63-7.62q-26.37,0-26.37,29.69l-6.05-26.56h8q1.45-20.71,25.39-20.71,20.7,0,32,12.21t11.33,34.67q0,28.8-16.65,44.67T2612.25,4431.49Z" transform="translate(23.53 23.43)"/><path d="M2763.36,4431.49q-26.46,0-40.87-13.91t-14.4-40q0-25.4,12.2-39.46t34.48-14.06q21,0,32.47,12.7t11.47,36.91q0,7.13-.59,13.28h-72.65v-15.82H2780q0-14-6.64-21.43t-18.36-7.47q-13.18,0-20.46,9t-7.27,25.39q0,18,10,27.35t28.46,9.37a108.7,108.7,0,0,0,12.7-.73c4.16-.49,8.4-1.16,12.69-2l2.54,18.16a137.78,137.78,0,0,1-16.79,2.25Q2769.22,4431.49,2763.36,4431.49Z" transform="translate(23.53 23.43)"/><path d="M2832.54,4301.22v-18.16h32.23v18.16ZM2897,4431.49q-18,0-26-9.76t-8-31.25V4283.06h20.7V4389.5a47.46,47.46,0,0,0,1.56,13.38,12.32,12.32,0,0,0,6.11,7.62q4.53,2.44,13.42,2.44,8.11,0,20.71-3.71l2.34,18.16a116.28,116.28,0,0,1-15.18,3.13A118.35,118.35,0,0,1,2897,4431.49Z" transform="translate(23.53 23.43)"/><path d="M3008.75,4431.49q-21.48,0-33.4-14.06t-11.91-39.65q0-25.68,11.91-39.69t33.4-14q21.59,0,33.45,14t11.86,39.69q0,25.59-11.86,39.65T3008.75,4431.49Zm0-18.55q11.43,0,17.63-9.18t6.2-26q0-16.89-6.2-26t-17.63-9.13q-11.43,0-17.63,9.13t-6.2,26q0,16.8,6.2,26T3008.75,4412.94Z" transform="translate(23.53 23.43)"/><path d="M1495.29,3856.45,1373.91,3771a26.49,26.49,0,0,0-36.87,6.4l-123,174.7a26.48,26.48,0,0,0,6.41,36.87l121.38,85.44a26.5,26.5,0,0,0,36.87-6.41l123-174.69A26.5,26.5,0,0,0,1495.29,3856.45Zm-131.57,201a8.11,8.11,0,0,1-11.28,2L1231.06,3974a8.1,8.1,0,0,1-2-11.28l123-174.69a8.1,8.1,0,0,1,11.28-2l121.38,85.43a8.1,8.1,0,0,1,2,11.28l-123,174.7Z" transform="translate(23.53 23.43)"/><path d="M1357.61,3855.31l48.82,34.36a9.18,9.18,0,0,0,10.57-15l-48.81-34.36a9.19,9.19,0,1,0-10.58,15Z" transform="translate(23.53 23.43)"/><path d="M1405.59,3922.77l-63.84-44.93a9.18,9.18,0,0,0-10.57,15l63.84,44.93a9.18,9.18,0,1,0,10.57-15Z" transform="translate(23.53 23.43)"/><path d="M1379.16,3960.32l-63.84-44.93a9.18,9.18,0,0,0-10.57,15l63.84,44.93a9.18,9.18,0,1,0,10.57-15Z" transform="translate(23.53 23.43)"/><path d="M1352.73,3997.87l-63.84-44.93a9.18,9.18,0,1,0-10.57,15l63.84,44.93a9.18,9.18,0,0,0,10.57-15Z" transform="translate(23.53 23.43)"/><path d="M2345.68,3491.88l121.39-85.43a26.48,26.48,0,0,1,36.87,6.41l123,174.69a26.49,26.49,0,0,1-6.41,36.87l-121.38,85.44a26.49,26.49,0,0,1-36.87-6.41l-123-174.69A26.5,26.5,0,0,1,2345.68,3491.88Zm131.58,201a8.11,8.11,0,0,0,11.28,2l121.38-85.44a8.1,8.1,0,0,0,2-11.28l-123-174.69a8.1,8.1,0,0,0-11.28-2l-121.38,85.43a8.1,8.1,0,0,0-2,11.28l123,174.7Z" transform="translate(23.53 23.43)"/><path d="M2483.37,3490.74l-48.82,34.36a9.19,9.19,0,0,1-10.58-15l48.82-34.36a9.19,9.19,0,0,1,10.58,15Z" transform="translate(23.53 23.43)"/><path d="M2435.39,3558.2l63.83-44.93a9.19,9.19,0,1,1,10.58,15L2446,3573.22a9.18,9.18,0,1,1-10.57-15Z" transform="translate(23.53 23.43)"/><path d="M2461.82,3595.75l63.84-44.93a9.18,9.18,0,0,1,10.57,15l-63.84,44.94a9.19,9.19,0,0,1-10.57-15Z" transform="translate(23.53 23.43)"/><path d="M2488.25,3633.3l63.84-44.93a9.18,9.18,0,0,1,10.57,15l-63.84,44.93a9.18,9.18,0,1,1-10.57-15Z" transform="translate(23.53 23.43)"/><path d="M3505.49,4061.88l-121.38-85.43a26.48,26.48,0,0,0-36.87,6.41l-123,174.69a26.48,26.48,0,0,0,6.41,36.87l121.38,85.44a26.49,26.49,0,0,0,36.87-6.41l123-174.69A26.5,26.5,0,0,0,3505.49,4061.88Zm-131.57,201a8.11,8.11,0,0,1-11.28,2l-121.38-85.44a8.1,8.1,0,0,1-2-11.28l123-174.69a8.1,8.1,0,0,1,11.28-2l121.38,85.43a8.1,8.1,0,0,1,2,11.28l-123,174.7Z" transform="translate(23.53 23.43)"/><path d="M3367.81,4060.74l48.82,34.36a9.18,9.18,0,0,0,10.57-15l-48.82-34.36a9.18,9.18,0,0,0-10.57,15Z" transform="translate(23.53 23.43)"/><path d="M3415.79,4128.2,3352,4083.27a9.18,9.18,0,0,0-10.57,15l63.84,44.93a9.18,9.18,0,1,0,10.57-15Z" transform="translate(23.53 23.43)"/><path d="M3389.36,4165.75l-63.84-44.93a9.18,9.18,0,0,0-10.57,15l63.83,44.94a9.19,9.19,0,1,0,10.58-15Z" transform="translate(23.53 23.43)"/><path d="M3362.93,4203.3l-63.84-44.93a9.18,9.18,0,1,0-10.57,15l63.84,44.93a9.18,9.18,0,0,0,10.57-15Z" transform="translate(23.53 23.43)"/><path d="M2970.49,3703.88l-121.38-85.43a26.48,26.48,0,0,0-36.87,6.41l-123,174.69a26.48,26.48,0,0,0,6.41,36.87l121.38,85.44a26.49,26.49,0,0,0,36.87-6.41l123-174.69A26.5,26.5,0,0,0,2970.49,3703.88Zm-131.57,201a8.11,8.11,0,0,1-11.28,2l-121.38-85.44a8.1,8.1,0,0,1-2-11.28l123-174.69a8.1,8.1,0,0,1,11.28-2l121.38,85.43a8.1,8.1,0,0,1,2,11.28l-123,174.7Z" transform="translate(23.53 23.43)"/><path d="M2832.81,3702.74l48.82,34.36a9.18,9.18,0,0,0,10.57-15l-48.82-34.36a9.18,9.18,0,0,0-10.57,15Z" transform="translate(23.53 23.43)"/><path d="M2880.79,3770.2,2817,3725.27a9.18,9.18,0,0,0-10.57,15l63.84,44.93a9.18,9.18,0,1,0,10.57-15Z" transform="translate(23.53 23.43)"/><path d="M2854.36,3807.75l-63.84-44.93a9.18,9.18,0,0,0-10.57,15l63.83,44.94a9.19,9.19,0,1,0,10.58-15Z" transform="translate(23.53 23.43)"/><path d="M2827.93,3845.3l-63.84-44.93a9.18,9.18,0,1,0-10.57,15l63.84,44.93a9.18,9.18,0,0,0,10.57-15Z" transform="translate(23.53 23.43)"/><path d="M3545.68,3856.88l121.39-85.43a26.48,26.48,0,0,1,36.87,6.41l123,174.69a26.49,26.49,0,0,1-6.41,36.87l-121.38,85.44a26.49,26.49,0,0,1-36.87-6.41l-123-174.69A26.5,26.5,0,0,1,3545.68,3856.88Zm131.58,201a8.11,8.11,0,0,0,11.28,2l121.38-85.44a8.1,8.1,0,0,0,2-11.28l-123-174.69a8.1,8.1,0,0,0-11.28-2l-121.38,85.43a8.1,8.1,0,0,0-2,11.28l123,174.7Z" transform="translate(23.53 23.43)"/><path d="M3683.37,3855.74l-48.82,34.36a9.19,9.19,0,0,1-10.58-15l48.82-34.36a9.19,9.19,0,0,1,10.58,15Z" transform="translate(23.53 23.43)"/><path d="M3635.39,3923.2l63.83-44.93a9.19,9.19,0,1,1,10.58,15L3646,3938.22a9.18,9.18,0,1,1-10.57-15Z" transform="translate(23.53 23.43)"/><path d="M3661.82,3960.75l63.84-44.93a9.18,9.18,0,0,1,10.57,15l-63.84,44.94a9.19,9.19,0,0,1-10.57-15Z" transform="translate(23.53 23.43)"/><path d="M3688.25,3998.3l63.84-44.93a9.18,9.18,0,0,1,10.57,15l-63.84,44.93a9.18,9.18,0,1,1-10.57-15Z" transform="translate(23.53 23.43)"/><path d="M1671.62,4226.11c21.9,3.27,44.33,5.92,66.29,3.73,29.32-2.93,54.14-14.41,75.5-34.73l-11.29-11.86a116.62,116.62,0,0,1-20,15.42l-96.12-101a116.17,116.17,0,0,1,16.39-19.2l-11.29-11.87c-21.36,20.32-34.1,44.59-38.48,73.73-3.28,21.87-1.66,44.36.54,66.41-21.91-3.29-44.3-6-66.3-3.83-29.32,2.92-53.94,14.22-75.69,34.91l11.29,11.87a117.31,117.31,0,0,1,21.41-16.31l95.66,100.53a117.84,117.84,0,0,1-17.35,20.57l11.29,11.86c21.75-20.69,34.2-44.68,38.57-73.82C1675.33,4270.68,1673.79,4248.15,1671.62,4226.11Zm6-113.51,89.17,93.71a113.91,113.91,0,0,1-33.53,7.53l-64.8-68.11A113.76,113.76,0,0,1,1677.62,4112.6Zm-10.45,55.54,43.67,45.88c-13.4-.69-27.06-2.61-40.95-4.73C1668.46,4195.31,1667.21,4181.56,1667.17,4168.14Zm-12.26,55.42c1.41,13.82,2.67,27.41,2.74,40.68l-43.26-45.46C1627.64,4219.52,1641.16,4221.45,1654.91,4223.56Zm-95.54,2.33a114.11,114.11,0,0,1,32.51-7l64.53,67.82a114.25,114.25,0,0,1-8.63,32.1Z" transform="translate(23.53 23.43)"/><path d="M2490.77,3953.87c3.36-21.9,6.1-44.31,4-66.28-2.8-29.33-14.19-54.2-34.42-75.64l-11.91,11.25a116.84,116.84,0,0,1,15.34,20.05L2362.38,3939a117,117,0,0,1-19.14-16.47l-11.91,11.24c20.24,21.44,44.46,34.28,73.58,38.77,21.85,3.37,44.35,1.84,66.41-.28-3.38,21.91-6.2,44.28-4.09,66.29,2.8,29.33,14,54,34.61,75.83l11.91-11.24a118,118,0,0,1-16.22-21.47l100.9-95.27a117.86,117.86,0,0,1,20.51,17.43l11.9-11.24c-20.61-21.83-44.55-34.38-73.66-38.87C2535.36,3950.33,2512.82,3951.78,2490.77,3953.87Zm-113.48-6.46,94.06-88.8a114,114,0,0,1,7.39,33.56l-68.36,64.54A113.62,113.62,0,0,1,2377.29,3947.41Zm55.5,10.67,46.05-43.48c-.74,13.39-2.72,27.05-4.89,40.92C2460,3956.9,2446.2,3958.1,2432.79,3958.08Zm55.36,12.49c13.83-1.37,27.43-2.56,40.69-2.58l-45.63,43.08C2484,3997.82,2486,3984.31,2488.15,3970.57Zm2,95.55a113.9,113.9,0,0,1-6.88-32.54l68.07-64.27a114.47,114.47,0,0,1,32.07,8.76Z" transform="translate(23.53 23.43)"/><path d="M3041.5,4009.69c5.14-21.54,9.71-43.65,9.42-65.73-.39-29.46-9.7-55.18-28.11-78.2L3010,3876a117.23,117.23,0,0,1,13.65,21.24l-108.91,87.08a117.17,117.17,0,0,1-17.72-18l-12.79,10.23c18.41,23,41.49,37.8,70.15,44.67,21.5,5.15,44,5.47,66.21,5.17-5.17,21.56-9.82,43.62-9.52,65.73.39,29.46,9.52,55,28.27,78.41l12.79-10.22a117.68,117.68,0,0,1-14.4-22.73l108.38-86.67a117.73,117.73,0,0,1,19,19.06l12.79-10.23c-18.75-23.45-41.58-37.92-70.24-44.78C3086.23,4009.83,3063.65,4009.42,3041.5,4009.69ZM2928.93,3994l101-80.78a113.89,113.89,0,0,1,4.61,34l-73.42,58.71A113.71,113.71,0,0,1,2928.93,3994Zm54.43,15.18,49.47-39.55c-1.84,13.28-4.93,26.73-8.23,40.38C3010.54,4010.19,2996.74,4010.25,2983.36,4009.13Zm54.16,17c13.9-.22,27.54-.3,40.77.77l-49,39.19C3031.15,4052.94,3034.24,4039.64,3037.52,4026.12Zm-5.89,95.39a114,114,0,0,1-4.19-33l73.11-58.47a113.88,113.88,0,0,1,31.25,11.37Z" transform="translate(23.53 23.43)"/><path d="M3422.1,3649l-121.39-85.44a26.48,26.48,0,0,0-36.87,6.41l-123,174.69a26.48,26.48,0,0,0,6.41,36.87L3268.67,3867a26.48,26.48,0,0,0,36.87-6.41l123-174.69A26.49,26.49,0,0,0,3422.1,3649Zm-131.58,201a8.1,8.1,0,0,1-11.28,2l-121.38-85.44a8.09,8.09,0,0,1-2-11.27l123-174.7a8.1,8.1,0,0,1,11.28-2l121.38,85.44a8.1,8.1,0,0,1,2,11.28l-123,174.69Z" transform="translate(23.53 23.43)"/><path d="M3284.41,3647.88l48.82,34.37a9.19,9.19,0,0,0,10.57-15L3295,3632.86a9.19,9.19,0,0,0-10.58,15Z" transform="translate(23.53 23.43)"/><path d="M3332.39,3715.34l-63.83-44.93a9.19,9.19,0,0,0-10.58,15l63.84,44.94a9.19,9.19,0,0,0,10.57-15Z" transform="translate(23.53 23.43)"/><path d="M3306,3752.9,3242.12,3708a9.18,9.18,0,0,0-10.57,15l63.84,44.93a9.18,9.18,0,1,0,10.57-15Z" transform="translate(23.53 23.43)"/><path d="M3279.53,3790.45l-63.84-44.93a9.18,9.18,0,1,0-10.57,15l63.84,44.93a9.18,9.18,0,1,0,10.57-15Z" transform="translate(23.53 23.43)"/><path d="M3729.28,3568.84c-5.14-21.55-9.71-43.66-9.42-65.73.39-29.47,9.7-55.18,28.11-78.21l12.79,10.23a117.38,117.38,0,0,0-13.65,21.24L3856,3543.45a116.72,116.72,0,0,0,17.72-18l12.79,10.23c-18.41,23-41.5,37.81-70.15,44.67-21.5,5.15-44.05,5.47-66.21,5.18,5.17,21.55,9.81,43.61,9.52,65.72-.39,29.46-9.52,55-28.27,78.42l-12.79-10.23a118.16,118.16,0,0,0,14.4-22.73l-108.38-86.66a117.65,117.65,0,0,0-19,19l-12.79-10.23c18.75-23.45,41.58-37.91,70.23-44.78C3684.55,3569,3707.13,3568.56,3729.28,3568.84Zm112.57-15.75-101-80.78a113.93,113.93,0,0,0-4.61,34.05l73.42,58.71A113.41,113.41,0,0,0,3841.85,3553.09Zm-54.44,15.19L3738,3528.72c1.84,13.29,4.93,26.74,8.23,40.39C3760.23,3569.33,3774,3569.39,3787.41,3568.28Zm-54.15,17c-13.9-.23-27.54-.31-40.77.77l49,39.18C3739.63,3612.08,3736.54,3598.78,3733.26,3585.27Zm5.89,95.38a113.93,113.93,0,0,0,4.19-33l-73.12-58.46a114.24,114.24,0,0,0-31.24,11.36Z" transform="translate(23.53 23.43)"/><path d="M1071,3648c11,19.22,21.65,39.14,27.6,60.4,8,28.37,6.29,55.67-4.87,83l-15.15-6.2a117.34,117.34,0,0,0,7.08-24.23l-129.06-52.76a115.74,115.74,0,0,0-11.92,22.25l-15.16-6.2c11.15-27.28,29.12-48,54.67-62.67,19.17-11,40.7-17.69,62-23.66-11-19.22-21.74-39.07-27.7-60.36-7.95-28.37-6.39-55.42,5-83.21l15.16,6.2a117.32,117.32,0,0,0-7.4,25.87l128.45,52.52a117.91,117.91,0,0,0,12.85-23.65l15.16,6.2c-11.36,27.79-29.18,48.11-54.72,62.79C1113.89,3635.27,1092.34,3642,1071,3648Zm-103.54,46.91,119.73,48.95a113.38,113.38,0,0,0-5.19-34l-87-35.58A113.7,113.7,0,0,0,967.48,3694.94Zm47.93-30,58.63,24c-5.52-12.22-12.28-24.25-19.31-36.41C1041.18,3656.3,1027.92,3660.14,1015.41,3665Zm47.15-31.59c13.39-3.71,26.51-7.49,38.89-12.26l-58.09-23.74C1048.87,3609.47,1055.59,3621.36,1062.56,3633.4ZM1030,3543.56a113.56,113.56,0,0,0,5.3,32.83l86.65,35.43a114.17,114.17,0,0,0,26.76-19.73Z" transform="translate(23.53 23.43)"/><path class="cls-22" d="M1401.2,2646.63,1439.64,2803s1234.26,680.95,2000.43,614.18Z" transform="translate(23.53 23.43)"/><text class="cls-23" transform="translate(2859 3166.64)">d<tspan class="cls-24" x="66.7" y="0">ataFishing</tspan></text><line class="cls-25" x1="1850.1" y1="1939" x2="1823.87" y2="3774.43"/><line class="cls-25" x1="2213.3" y1="3261.61" x2="1434.24" y2="3246.09"/><line class="cls-25" x1="1442.69" y1="3246.43" x2="1437.56" y2="3504"/><path d="M1445.79,3605.89c3.4-21.89,6.18-44.3,4.12-66.28-2.75-29.33-14.09-54.22-34.28-75.7l-11.93,11.22a117,117,0,0,1,15.3,20.08l-101.57,95.53a116.66,116.66,0,0,1-19.11-16.5l-11.93,11.22c20.2,21.47,44.39,34.36,73.5,38.9,21.84,3.41,44.35,1.93,66.41-.14-3.42,21.89-6.28,44.26-4.22,66.27,2.75,29.34,13.9,54,34.47,75.9l11.93-11.22a117.86,117.86,0,0,1-16.18-21.5l101.09-95.07a117.9,117.9,0,0,1,20.47,17.47l11.93-11.22c-20.57-21.87-44.49-34.46-73.6-39C1490.38,3602.44,1467.85,3603.84,1445.79,3605.89Zm-113.47-6.68,94.23-88.61a113.9,113.9,0,0,1,7.33,33.57l-68.48,64.4A113.59,113.59,0,0,1,1332.32,3599.21ZM1387.8,3610l46.14-43.4c-.78,13.4-2.78,27-5,40.92C1415,3608.86,1401.21,3610,1387.8,3610Zm55.34,12.59c13.83-1.34,27.43-2.51,40.69-2.5l-45.71,43C1438.94,3649.82,1441,3636.32,1443.14,3622.58Zm1.77,95.55a113.86,113.86,0,0,1-6.82-32.55l68.2-64.13a113.79,113.79,0,0,1,32,8.82Z" transform="translate(23.53 23.43)"/><line class="cls-25" x1="2208.3" y1="3259.43" x2="2199.94" y2="3679"/><path d="M2157.47,3780c11-19.22,21.64-39.14,27.6-60.39,7.94-28.38,6.29-55.67-4.87-83l-15.16,6.2a116.78,116.78,0,0,1,7.09,24.23l-129.07,52.77a117.25,117.25,0,0,1-11.92-22.26l-15.16,6.2c11.16,27.28,29.12,48,54.67,62.67,19.17,11,40.71,17.69,62,23.66-11,19.22-21.73,39.07-27.69,60.36-8,28.38-6.39,55.42,5,83.21l15.16-6.19a117.55,117.55,0,0,1-7.4-25.88l128.45-52.51a118,118,0,0,1,12.85,23.64l15.15-6.2c-11.36-27.79-29.17-48.11-54.72-62.79C2200.33,3792.74,2178.79,3786,2157.47,3780Zm-103.54-46.9,119.73-49a113.7,113.7,0,0,1-5.19,34l-87,35.58A113.72,113.72,0,0,1,2053.93,3733.08Zm47.93,29.94,58.62-24c-5.52,12.22-12.28,24.25-19.3,36.41C2127.63,3771.71,2114.37,3767.87,2101.86,3763Zm47.14,31.59c13.4,3.72,26.51,7.5,38.89,12.26l-58.08,23.75C2135.32,3818.54,2142,3806.66,2149,3794.61Zm-32.59,89.84a113.9,113.9,0,0,1,5.3-32.83l86.65-35.43a114,114,0,0,1,26.76,19.73Z" transform="translate(23.53 23.43)"/><path d="M1937.49,3827.88l-121.38-85.43a26.48,26.48,0,0,0-36.87,6.41l-123,174.69a26.48,26.48,0,0,0,6.41,36.87l121.38,85.44a26.49,26.49,0,0,0,36.87-6.41l123-174.69A26.5,26.5,0,0,0,1937.49,3827.88Zm-131.57,201a8.11,8.11,0,0,1-11.28,2l-121.38-85.44a8.1,8.1,0,0,1-2-11.28l123-174.69a8.1,8.1,0,0,1,11.28-2l121.38,85.43a8.1,8.1,0,0,1,2,11.28l-123,174.7Z" transform="translate(23.53 23.43)"/><path d="M1799.81,3826.74l48.82,34.36a9.18,9.18,0,0,0,10.57-15l-48.82-34.36a9.18,9.18,0,0,0-10.57,15Z" transform="translate(23.53 23.43)"/><path d="M1847.79,3894.2,1784,3849.27a9.18,9.18,0,0,0-10.57,15l63.84,44.93a9.18,9.18,0,1,0,10.57-15Z" transform="translate(23.53 23.43)"/><path d="M1821.36,3931.75l-63.84-44.93a9.18,9.18,0,0,0-10.57,15l63.83,44.94a9.19,9.19,0,1,0,10.58-15Z" transform="translate(23.53 23.43)"/><path d="M1794.93,3969.3l-63.84-44.93a9.18,9.18,0,1,0-10.57,15l63.84,44.93a9.18,9.18,0,0,0,10.57-15Z" transform="translate(23.53 23.43)"/><polygon class="cls-26" points="2923.26 878.36 2839.08 950.42 2883.74 1051.86 2776.55 1080.11 2772.78 1190.89 2663.94 1170 2612.47 1268.16 2523.53 1201.96 2434.59 1268.16 2383.12 1170 2274.27 1190.89 2270.5 1080.11 2163.31 1051.85 2207.97 950.42 2123.79 878.36 2207.97 806.3 2163.31 704.87 2270.5 676.62 2274.27 565.83 2383.12 586.72 2434.59 488.56 2523.53 554.76 2612.47 488.56 2663.94 586.72 2772.78 565.83 2776.55 676.62 2883.74 704.87 2839.08 806.3 2923.26 878.36"/><circle class="cls-27" cx="2523.53" cy="878.36" r="266.49"/><g id="g5332" class="cls-28"><line id="line3469" class="cls-29" x1="2523.53" y1="875.88" x2="2523.53" y2="875.88"/><line id="line3471" class="cls-30" x1="2523.53" y1="875.88" x2="2285.98" y2="875.88"/><line id="line3475" class="cls-29" x1="2523.53" y1="875.88" x2="2523.53" y2="875.88"/><line id="line3477" class="cls-29" x1="2523.53" y1="875.88" x2="2537.83" y2="875.1"/><path id="path3479" class="cls-29" d="M2514.89,851.67a14.91,14.91,0,0,0-28.68-4.89" transform="translate(23.53 23.43)"/><line id="line3481" class="cls-29" x1="2509.71" y1="870.3" x2="2345.57" y2="802.19"/><path id="path3483" class="cls-29" d="M2322,778.76a193,193,0,0,0-12.22,43.17" transform="translate(23.53 23.43)"/><line id="line3485" class="cls-30" x1="2333.02" y1="845.31" x2="2289.12" y2="839.04"/><path id="path3489" class="cls-29" d="M2328.51,764.75q-3.51,6.87-6.47,14" transform="translate(23.53 23.43)"/><line id="line3491" class="cls-29" x1="2351.84" y1="788.08" x2="2338.51" y2="781.81"/><path id="path3493" class="cls-29" d="M2315,758.38q-3.74,7.35-6.87,15" transform="translate(23.53 23.43)"/><line id="line3495" class="cls-29" x1="2331.45" y1="796.7" x2="2318.13" y2="790.43"/><path id="path3497" class="cls-29" d="M2294.6,767q-3.39,8.13-6.12,16.52" transform="translate(23.53 23.43)"/><line id="line3499" class="cls-30" x1="2311.86" y1="806.9" x2="2297.74" y2="802.19"/><path id="path3503" class="cls-29" d="M2301.81,751.4q-3.9,7.67-7.21,15.6" transform="translate(23.53 23.43)"/><line id="line3505" class="cls-30" x1="2325.18" y1="774.75" x2="2311.86" y2="767.7"/><path id="path3509" class="cls-29" d="M2332.28,730.19A206.5,206.5,0,0,0,2315,758.38" transform="translate(23.53 23.43)"/><line id="line3511" class="cls-30" x1="2355.76" y1="753.59" x2="2331.45" y2="736.34"/><path id="path3515" class="cls-29" d="M2514.57,855.69a15.08,15.08,0,0,0,.33-4" transform="translate(23.53 23.43)"/><line id="line3517" class="cls-29" x1="2538.14" y1="879.22" x2="2552.44" y2="883.14"/><path id="path3519" class="cls-29" d="M2529,859.51c.18-.75.33-1.51.46-2.28" transform="translate(23.53 23.43)"/><line id="line3521" class="cls-29" x1="2553.04" y1="880.59" x2="2567.43" y2="882.94"/><path id="path3523" class="cls-29" d="M2543.9,859.51a44.52,44.52,0,0,0,0-14.11" transform="translate(23.53 23.43)"/><line id="line3525" class="cls-29" x1="2567.43" y1="868.83" x2="2582.32" y2="866.48"/><path id="path3527" class="cls-29" d="M2558.8,843.05a59.61,59.61,0,0,0-3.79-13.38" transform="translate(23.53 23.43)"/><line id="line3529" class="cls-29" x1="2578.4" y1="853.15" x2="2591.73" y2="847.66"/><path id="path3531" class="cls-29" d="M2568.2,824.23a73.82,73.82,0,0,0-111.62-31.47" transform="translate(23.53 23.43)"/><line id="line3533" class="cls-29" x1="2479.62" y1="815.52" x2="2401.23" y2="708.11"/><path id="path3535" class="cls-29" d="M2377.7,684.68a209.3,209.3,0,0,0-24.51,21" transform="translate(23.53 23.43)"/><line id="line3537" class="cls-30" x1="2376.63" y1="728.98" x2="2355.46" y2="708.31"/><path id="path3541" class="cls-29" d="M2391.23,675.61q-6.95,4.27-13.53,9.07" transform="translate(23.53 23.43)"/><line id="line3543" class="cls-29" x1="2414.55" y1="698.7" x2="2407.5" y2="686.16"/><path id="path3545" class="cls-29" d="M2384,662.73q-7.5,4.59-14.64,9.77" transform="translate(23.53 23.43)"/><line id="line3547" class="cls-30" x1="2392.6" y1="695.57" x2="2383.98" y2="683.81"/><path id="path3551" class="cls-29" d="M2399,654.33q-7.67,3.92-15,8.4" transform="translate(23.53 23.43)"/><line id="line3553" class="cls-30" x1="2422.39" y1="677.54" x2="2415.34" y2="664.21"/><path id="path3557" class="cls-29" d="M2572.89,840.82a74.2,74.2,0,0,0-4.68-16.59" transform="translate(23.53 23.43)"/><line id="line3559" class="cls-29" x1="2597.22" y1="864.13" x2="2611.33" y2="861.77"/><path id="path3561" class="cls-29" d="M2587.8,838.34a88.2,88.2,0,0,0-3.2-13.3" transform="translate(23.53 23.43)"/><line id="line3563" class="cls-29" x1="2608.2" y1="848.45" x2="2622.31" y2="843.74"/><path id="path3565" class="cls-29" d="M2598.78,820.31q-1.31-4-2.94-7.92" transform="translate(23.53 23.43)"/><line id="line3567" class="cls-29" x1="2619.32" y1="835.73" x2="2633.06" y2="830.24"/><path id="path3569" class="cls-29" d="M2609.76,807a118.79,118.79,0,0,0-100.35-73" transform="translate(23.53 23.43)"/><line id="line3571" class="cls-29" x1="2532.93" y1="757.5" x2="2537.64" y2="698.04"/><path id="path3573" class="cls-29" d="M2514.11,674.49a178.38,178.38,0,0,0-55.74,4.37" transform="translate(23.53 23.43)"/><line id="line3575" class="cls-29" x1="2481.88" y1="702.23" x2="2471.69" y2="659.51"/><path id="path3577" class="cls-29" d="M2448.26,636.08q-8.7,2.07-17.2,4.85" transform="translate(23.53 23.43)"/><line id="line3579" class="cls-30" x1="2454.54" y1="664.21" x2="2449.83" y2="650.1"/><path id="path3583" class="cls-29" d="M2465.58,632.65q-8.73,1.38-17.32,3.43" transform="translate(23.53 23.43)"/><line id="line3585" class="cls-30" x1="2489.03" y1="655.59" x2="2486.68" y2="641.47"/><path id="path3589" class="cls-29" d="M2541.64,678.86a179.09,179.09,0,0,0-27.53-4.37" transform="translate(23.53 23.43)"/><line id="line3591" class="cls-29" x1="2565.18" y1="702.23" x2="2568.31" y2="688.61"/><path id="path3593" class="cls-29" d="M2544.69,665.08q-7-1.67-14.17-2.82" transform="translate(23.53 23.43)"/><line id="line3595" class="cls-29" x1="2554.1" y1="685.38" x2="2555.67" y2="670.48"/><path id="path3597" class="cls-29" d="M2532.14,647.05q-7.79-1.21-15.66-1.84" transform="translate(23.53 23.43)"/><line id="line3599" class="cls-29" x1="2539.99" y1="668.47" x2="2540.77" y2="654.08"/><path id="path3601" class="cls-29" d="M2517.25,630.59c-5.74-.45-11.5-.67-17.25-.67" transform="translate(23.53 23.43)"/><line id="line3603" class="cls-30" x1="2523.53" y1="653.23" x2="2523.53" y2="638.34"/><path id="path3607" class="cls-29" d="M2534.42,632.6q-8.53-1.33-17.17-2" transform="translate(23.53 23.43)"/><line id="line3609" class="cls-30" x1="2558.02" y1="655.59" x2="2560.37" y2="641.47"/><path id="path3613" class="cls-29" d="M2564.33,654.76a208,208,0,0,0-32.19-7.71" transform="translate(23.53 23.43)"/><line id="line3615" class="cls-30" x1="2587.88" y1="678.13" x2="2597.22" y2="650.1"/><path id="path3619" class="cls-29" d="M2587.71,681a193,193,0,0,0-43-15.87" transform="translate(23.53 23.43)"/><line id="line3621" class="cls-30" x1="2611.33" y1="704.19" x2="2631.71" y2="664.21"/><path id="path3625" class="cls-29" d="M2618.43,861.86a118.88,118.88,0,0,0-8.68-54.88" transform="translate(23.53 23.43)"/><line id="line3627" class="cls-29" x1="2641.96" y1="885.34" x2="2656.33" y2="886.12"/><path id="path3629" class="cls-29" d="M2633.27,862.65a133.45,133.45,0,0,0,0-20.39" transform="translate(23.53 23.43)"/><line id="line3631" class="cls-29" x1="2656.8" y1="865.69" x2="2671.7" y2="864.13"/><path id="path3633" class="cls-29" d="M2648.17,840.7a148.6,148.6,0,0,0-43.06-93.35" transform="translate(23.53 23.43)"/><line id="line3635" class="cls-29" x1="2628.68" y1="770.63" x2="2669.53" y2="729.78"/><path id="path3637" class="cls-29" d="M2646.6,705.85q-5.86-5.86-12.19-11.25" transform="translate(23.53 23.43)"/><line id="line3639" class="cls-29" x1="2658.37" y1="717.52" x2="2667.78" y2="706.54"/><path id="path3641" class="cls-29" d="M2644.25,683.12q-6.57-5.6-13.55-10.67" transform="translate(23.53 23.43)"/><line id="line3643" class="cls-30" x1="2654.45" y1="695.57" x2="2663.07" y2="683.81"/><path id="path3647" class="cls-29" d="M2657.3,695.16q-6.28-6.28-13.05-12" transform="translate(23.53 23.43)"/><line id="line3649" class="cls-30" x1="2681.11" y1="718.31" x2="2691.3" y2="708.11"/><path id="path3653" class="cls-29" d="M2667.54,730.32a206.82,206.82,0,0,0-20.93-24.47" transform="translate(23.53 23.43)"/><line id="line3655" class="cls-30" x1="2691.3" y1="753.59" x2="2715.6" y2="736.34"/><path id="path3659" class="cls-29" d="M2646.76,876a149.05,149.05,0,0,0,1.41-35.31" transform="translate(23.53 23.43)"/><line id="line3661" class="cls-29" x1="2670.63" y1="899.5" x2="2685.03" y2="901.85"/><path id="path3663" class="cls-29" d="M2661.5,878.33a163.63,163.63,0,0,0,1.57-38.42" transform="translate(23.53 23.43)"/><line id="line3665" class="cls-29" x1="2686.59" y1="863.34" x2="2701.49" y2="861.77"/><path id="path3667" class="cls-29" d="M2678,838.34a178.51,178.51,0,0,0-18.92-67" transform="translate(23.53 23.43)"/><line id="line3669" class="cls-30" x1="2683.17" y1="794.48" x2="2736.49" y2="767.05"/><path id="path3673" class="cls-29" d="M2678.53,852.46q0-7.07-.56-14.12" transform="translate(23.53 23.43)"/><line id="line3675" class="cls-29" x1="2702.05" y1="875.88" x2="2716.19" y2="875.88"/><path id="path3677" class="cls-29" d="M2692.86,852.46a193.1,193.1,0,0,0-5.26-44.74" transform="translate(23.53 23.43)"/><line id="line3679" class="cls-29" x1="2711.4" y1="831.1" x2="2739.9" y2="824.14"/><path id="path3681" class="cls-29" d="M2716.38,800.71q-2.09-8.69-4.86-17.2" transform="translate(23.53 23.43)"/><line id="line3683" class="cls-30" x1="2735.2" y1="806.9" x2="2749.31" y2="802.19"/><path id="path3687" class="cls-29" d="M2719.8,818q-1.37-8.73-3.42-17.33" transform="translate(23.53 23.43)"/><line id="line3689" class="cls-30" x1="2743.82" y1="841.39" x2="2757.93" y2="839.04"/><path id="path3693" class="cls-29" d="M2690.42,883a193.2,193.2,0,0,0,2.44-30.57" transform="translate(23.53 23.43)"/><line id="line3695" class="cls-29" x1="2714.03" y1="906.46" x2="2728.93" y2="908.03"/><path id="path3697" class="cls-29" d="M2705.4,884.6c.81-5.19,1.43-10.42,1.85-15.66" transform="translate(23.53 23.43)"/><line id="line3699" class="cls-29" x1="2730.79" y1="892.35" x2="2745.39" y2="893.13"/><path id="path3701" class="cls-29" d="M2721.86,869.7c.45-5.73.67-11.49.67-17.24" transform="translate(23.53 23.43)"/><line id="line3703" class="cls-30" x1="2746.17" y1="875.88" x2="2761.07" y2="875.88"/><path id="path3707" class="cls-29" d="M2719.86,886.88q1.33-8.55,2-17.18" transform="translate(23.53 23.43)"/><line id="line3709" class="cls-30" x1="2743.82" y1="910.38" x2="2757.93" y2="912.73"/><path id="path3713" class="cls-29" d="M2697.7,916.78a206.85,206.85,0,0,0,7.7-32.19" transform="translate(23.53 23.43)"/><line id="line3715" class="cls-30" x1="2721.38" y1="940.24" x2="2749.6" y2="949.65"/><path id="path3719" class="cls-29" d="M2632.62,948.19a163.57,163.57,0,0,0,28.88-69.86" transform="translate(23.53 23.43)"/><line id="line3721" class="cls-29" x1="2656.02" y1="971.8" x2="2691.16" y2="998.04"/><path id="path3723" class="cls-29" d="M2667.77,974.76a207.21,207.21,0,0,0,17.29-28.2" transform="translate(23.53 23.43)"/><line id="line3725" class="cls-30" x1="2708.69" y1="970.03" x2="2735.35" y2="984.14"/><path id="path3729" class="cls-29" d="M2658.07,987.05q5.08-6,9.7-12.3" transform="translate(23.53 23.43)"/><line id="line3731" class="cls-29" x1="2681.89" y1="1010.73" x2="2692.86" y2="1020.14"/><path id="path3733" class="cls-29" d="M2669.34,996.71q5.6-6.57,10.66-13.55" transform="translate(23.53 23.43)"/><line id="line3735" class="cls-30" x1="2703.84" y1="1006.81" x2="2715.6" y2="1015.43"/><path id="path3739" class="cls-29" d="M2657.3,1009.75q6.27-6.27,12-13" transform="translate(23.53 23.43)"/><line id="line3741" class="cls-30" x1="2681.11" y1="1033.46" x2="2691.3" y2="1043.66"/><path id="path3745" class="cls-29" d="M2569.92,966.37a133.68,133.68,0,0,0,63.36-103.73" transform="translate(23.53 23.43)"/><line id="line3747" class="cls-29" x1="2593.44" y1="989.97" x2="2639.55" y2="1065.33"/><path id="path3749" class="cls-29" d="M2616,1042.18q7.5-4.59,14.63-9.77" transform="translate(23.53 23.43)"/><line id="line3751" class="cls-30" x1="2654.45" y1="1056.2" x2="2663.07" y2="1067.96"/><path id="path3755" class="cls-29" d="M2601,1050.57q7.67-3.9,15-8.4" transform="translate(23.53 23.43)"/><line id="line3757" class="cls-30" x1="2624.66" y1="1074.23" x2="2631.71" y2="1087.56"/><path id="path3761" class="cls-29" d="M2532.14,951.24a103.87,103.87,0,0,0,66.64-130.92h0" transform="translate(23.53 23.43)"/><line id="line3763" class="cls-30" x1="2555.67" y1="974.67" x2="2597.22" y2="1101.67"/><path id="path3767" class="cls-29" d="M2507.06,941.11a88.94,88.94,0,0,0,81.59-95.72q-.29-3.54-.85-7" transform="translate(23.53 23.43)"/><line id="line3769" class="cls-29" x1="2530.58" y1="964.52" x2="2540.77" y2="1097.75"/><path id="path3771" class="cls-29" d="M2517.25,1074.32q8.63-.67,17.18-2" transform="translate(23.53 23.43)"/><line id="line3773" class="cls-30" x1="2558.02" y1="1096.18" x2="2560.37" y2="1110.29"/><path id="path3777" class="cls-29" d="M2517.25,1074.32c-5.74.45-11.5.67-17.25.67" transform="translate(23.53 23.43)"/><line id="line3779" class="cls-30" x1="2523.53" y1="1098.53" x2="2523.53" y2="1113.43"/><path id="path3783" class="cls-29" d="M2481.88,909.18a59.56,59.56,0,0,0,76.92-66.13" transform="translate(23.53 23.43)"/><line id="line3785" class="cls-29" x1="2505.37" y1="932.76" x2="2459.46" y2="1073.14"/><path id="path3787" class="cls-29" d="M2435.71,1050a208.9,208.9,0,0,0,32.17,7.7" transform="translate(23.53 23.43)"/><line id="line3789" class="cls-30" x1="2491.38" y1="1081.29" x2="2486.68" y2="1110.29"/><path id="path3793" class="cls-29" d="M2420.82,1044.53q7.33,3,14.89,5.48" transform="translate(23.53 23.43)"/><line id="line3795" class="cls-29" x1="2444.35" y1="1067.96" x2="2438.07" y2="1081.29"/><path id="path3797" class="cls-29" d="M2414.55,1057.86q8.13,3.38,16.51,6.11" transform="translate(23.53 23.43)"/><line id="line3799" class="cls-30" x1="2454.54" y1="1087.56" x2="2449.83" y2="1101.67"/><path id="path3803" class="cls-29" d="M2399,1050.64q7.65,3.91,15.6,7.21" transform="translate(23.53 23.43)"/><line id="line3805" class="cls-30" x1="2422.39" y1="1074.23" x2="2415.34" y2="1087.56"/><path id="path3809" class="cls-29" d="M2466.3,881.46a44.46,44.46,0,0,0,77.6-22" transform="translate(23.53 23.43)"/><line id="line3811" class="cls-29" x1="2489.82" y1="904.89" x2="2376.92" y2="1001.32"/><path id="path3813" class="cls-29" d="M2353.4,977.89a192.32,192.32,0,0,0,33,30.5" transform="translate(23.53 23.43)"/><line id="line3815" class="cls-30" x1="2409.85" y1="1031.9" x2="2383.98" y2="1067.96"/><path id="path3819" class="cls-29" d="M2344.07,966.08c2.95,4,6.07,8,9.33,11.81" transform="translate(23.53 23.43)"/><line id="line3821" class="cls-29" x1="2367.52" y1="989.56" x2="2355.76" y2="998.18"/><path id="path3823" class="cls-29" d="M2332.23,974.76a207.36,207.36,0,0,0,21,24.5" transform="translate(23.53 23.43)"/><line id="line3825" class="cls-30" x1="2376.71" y1="1022.7" x2="2355.54" y2="1043.87"/><path id="path3829" class="cls-29" d="M2323.16,961.22q4.26,6.93,9.07,13.53" transform="translate(23.53 23.43)"/><line id="line3831" class="cls-29" x1="2346.35" y1="984.86" x2="2333.81" y2="991.91"/><path id="path3833" class="cls-29" d="M2310.28,968.48q4.59,7.51,9.77,14.64" transform="translate(23.53 23.43)"/><line id="line3835" class="cls-30" x1="2343.21" y1="1006.81" x2="2331.45" y2="1015.43"/><path id="path3839" class="cls-29" d="M2301.88,953.47q3.91,7.66,8.4,15" transform="translate(23.53 23.43)"/><line id="line3841" class="cls-30" x1="2325.18" y1="977.02" x2="2311.86" y2="984.07"/><path id="path3845" class="cls-29" d="M2471.68,861.9a29.85,29.85,0,0,0,57.33-2.39" transform="translate(23.53 23.43)"/><line id="line3847" class="cls-30" x1="2494.91" y1="885.39" x2="2297.74" y2="949.48"/><line id="line3851" class="cls-29" x1="2523.53" y1="875.88" x2="2523.53" y2="875.88"/><line id="line3853" class="cls-30" x1="2523.53" y1="875.88" x2="2289.12" y2="912.73"/></g></svg>