<svg id="Layer_1" data-name="Layer 1" xmlns="http://www.w3.org/2000/svg" viewBox="0 0 1249.82 320.5"><defs><style>.cls-1{font-size:23.68px;font-family:TimesNewRomanPS-BoldMT, Times New Roman;font-weight:700;letter-spacing:0.08em;}.cls-2{fill:none;stroke:#000;stroke-miterlimit:10;stroke-width:5px;}.cls-3,.cls-4,.cls-5,.cls-6{font-size:17.76px;}.cls-3,.cls-4,.cls-5,.cls-6,.cls-8,.cls-9{font-family:TimesNewRomanPSMT, Times New Roman;}.cls-3,.cls-7{letter-spacing:0.02em;}.cls-4{letter-spacing:0.03em;}.cls-5{letter-spacing:0.03em;}.cls-6{letter-spacing:-0.04em;}.cls-8,.cls-9{font-size:29.6px;}.cls-8{letter-spacing:0.02em;}.cls-9{letter-spacing:0.03em;}</style></defs><text class="cls-1" transform="translate(7.23 171.03)">luan@rabelo:~/home/luan$ python3 dataFishing.py Clupeiformes.txt luanrabelo@outlook.com 5</text><line class="cls-2" x1="330.7" y1="172.68" x2="330.7" y2="185.11"/><line class="cls-2" x1="433.08" y1="172.68" x2="433.08" y2="185.11"/><line class="cls-2" x1="332.92" y1="182.63" x2="432.28" y2="182.63"/><line class="cls-2" x1="379.09" y1="182.15" x2="379.09" y2="194.58"/><line class="cls-2" x1="614.46" y1="171.46" x2="614.46" y2="183.89"/><line class="cls-2" x1="821.78" y1="171.46" x2="821.78" y2="183.89"/><line class="cls-2" x1="611.94" y1="182.41" x2="824.28" y2="182.41"/><line class="cls-2" x1="708.07" y1="183.89" x2="708.07" y2="196.32"/><line class="cls-2" x1="1124.27" y1="172.68" x2="1124.27" y2="185.11"/><line class="cls-2" x1="1149.13" y1="172.68" x2="1149.13" y2="185.11"/><line class="cls-2" x1="1122.71" y1="183.47" x2="1150.32" y2="183.47"/><line class="cls-2" x1="1136.7" y1="182.15" x2="1136.7" y2="194.58"/><line class="cls-2" x1="822.16" y1="155.51" x2="822.16" y2="141.01"/><line class="cls-2" x1="1123.42" y1="151.53" x2="1123.42" y2="141.14"/><line class="cls-2" x1="819.98" y1="142.38" x2="1126.28" y2="142.75"/><line class="cls-2" x1="964.11" y1="143.51" x2="964.11" y2="133.13"/><line class="cls-2" x1="432.48" y1="153.17" x2="432.48" y2="140.73"/><line class="cls-2" x1="615.17" y1="153.74" x2="615.17" y2="141.31"/><line class="cls-2" x1="429.99" y1="143.2" x2="617.69" y2="143.3"/><line class="cls-2" x1="516.42" y1="143.68" x2="516.42" y2="131.25"/><line class="cls-2" x1="2.5" y1="154.51" x2="2.5" y2="142.08"/><line class="cls-2" x1="330.7" y1="155.51" x2="330.7" y2="143.08"/><line class="cls-2" x1="0.32" y1="144.59" x2="333.28" y2="144.59"/><line class="cls-2" x1="173.1" y1="146.04" x2="173.1" y2="130.06"/><text class="cls-3" transform="translate(309.66 233.97)">python or python3</text><rect class="cls-2" x="278.46" y="193.1" width="201.26" height="71.03" rx="12"/><text class="cls-3" transform="translate(448.41 103.74)">path python script</text><rect class="cls-2" x="415.79" y="61.69" width="201.26" height="71.03" rx="12"/><text class="cls-4" transform="translate(655.02 235.15)">path input file</text><rect class="cls-2" x="607.58" y="194.29" width="201.26" height="71.03" rx="12"/><text class="cls-5" transform="translate(920.26 104.34)">E-mail user</text><rect class="cls-2" x="863.29" y="63.47" width="201.26" height="71.03" rx="12"/><text class="cls-4" transform="translate(1078.4 225.09)">wait for next <tspan x="-17.41" y="21.31">request (seconds)</tspan></text><rect class="cls-2" x="1026.07" y="193.69" width="201.26" height="71.03" rx="12"/><text class="cls-6" transform="translate(139.65 90.13)">T<tspan class="cls-7" x="10.05" y="0">erminal</tspan><tspan class="cls-7"><tspan x="-26.84" y="21.31">User and Folder</tspan></tspan></text><rect class="cls-2" x="72.77" y="59.92" width="201.26" height="71.03" rx="12"/><circle class="cls-2" cx="173.69" cy="26.18" r="23.68"/><circle class="cls-2" cx="379.09" cy="294.32" r="23.68"/><circle class="cls-2" cx="515.83" cy="27.95" r="23.68"/><circle class="cls-2" cx="708.2" cy="294.32" r="23.68"/><circle class="cls-2" cx="1126.7" cy="294.32" r="23.68"/><text class="cls-8" transform="translate(165.79 34.95)">1</text><text class="cls-8" transform="translate(371.6 304.3)">2</text><text class="cls-8" transform="translate(508.93 37.94)">3</text><text class="cls-9" transform="translate(700.71 304.3)">4</text><circle class="cls-2" cx="964.51" cy="32.69" r="23.68"/><text class="cls-9" transform="translate(957.02 42.08)">5</text><text class="cls-9" transform="translate(1119.21 304.3)">6</text></svg>