<svg id="Layer_1" data-name="Layer 1" xmlns="http://www.w3.org/2000/svg" viewBox="0 0 1280 336"><defs><style>.cls-1{fill:#fff;}.cls-2{font-size:23.68px;font-family:TimesNewRomanPS-BoldMT, Times New Roman;font-weight:700;letter-spacing:0.08em;}.cls-3{fill:none;stroke:#000;stroke-miterlimit:10;stroke-width:5px;}.cls-4,.cls-5,.cls-6,.cls-7{font-size:17.76px;}.cls-10,.cls-4,.cls-5,.cls-6,.cls-7,.cls-9{font-family:TimesNewRomanPSMT, Times New Roman;}.cls-4,.cls-8{letter-spacing:0.02em;}.cls-5{letter-spacing:0.03em;}.cls-6{letter-spacing:0.03em;}.cls-7{letter-spacing:-0.04em;}.cls-10,.cls-9{font-size:29.6px;}.cls-9{letter-spacing:0.02em;}.cls-10{letter-spacing:0.03em;}</style></defs><rect class="cls-1" width="1280" height="336" rx="12"/><text class="cls-2" transform="translate(19.45 175.78)">luan@rabelo:~/home/luan$ python3 dataFishing.py Clupeiformes.txt luanrabelo@outlook.com 5</text><line class="cls-3" x1="342.92" y1="177.43" x2="342.92" y2="189.86"/><line class="cls-3" x1="445.3" y1="177.43" x2="445.3" y2="189.86"/><line class="cls-3" x1="345.14" y1="187.38" x2="444.5" y2="187.38"/><line class="cls-3" x1="391.31" y1="186.9" x2="391.31" y2="199.33"/><line class="cls-3" x1="626.69" y1="176.21" x2="626.69" y2="188.64"/><line class="cls-3" x1="834" y1="176.21" x2="834" y2="188.64"/><line class="cls-3" x1="624.17" y1="187.16" x2="836.5" y2="187.16"/><line class="cls-3" x1="720.29" y1="188.64" x2="720.29" y2="201.07"/><line class="cls-3" x1="1136.49" y1="177.43" x2="1136.49" y2="189.86"/><line class="cls-3" x1="1161.36" y1="177.43" x2="1161.36" y2="189.86"/><line class="cls-3" x1="1134.94" y1="188.22" x2="1162.54" y2="188.22"/><line class="cls-3" x1="1148.93" y1="186.9" x2="1148.93" y2="199.33"/><line class="cls-3" x1="834.38" y1="160.26" x2="834.38" y2="145.76"/><line class="cls-3" x1="1135.64" y1="156.28" x2="1135.64" y2="145.89"/><line class="cls-3" x1="832.2" y1="147.13" x2="1138.5" y2="147.5"/><line class="cls-3" x1="976.34" y1="148.26" x2="976.34" y2="137.88"/><line class="cls-3" x1="444.7" y1="157.92" x2="444.7" y2="145.48"/><line class="cls-3" x1="627.39" y1="158.49" x2="627.39" y2="146.06"/><line class="cls-3" x1="442.21" y1="147.95" x2="629.91" y2="148.05"/><line class="cls-3" x1="528.64" y1="148.43" x2="528.64" y2="136"/><line class="cls-3" x1="14.72" y1="159.26" x2="14.72" y2="146.83"/><line class="cls-3" x1="342.92" y1="160.26" x2="342.92" y2="147.83"/><line class="cls-3" x1="12.54" y1="149.34" x2="345.5" y2="149.34"/><line class="cls-3" x1="185.32" y1="150.79" x2="185.32" y2="134.81"/><text class="cls-4" transform="translate(321.89 238.72)">python or python3</text><rect class="cls-3" x="290.69" y="197.85" width="201.26" height="71.03" rx="12"/><text class="cls-4" transform="translate(460.63 108.49)">path python script</text><rect class="cls-3" x="428.01" y="66.44" width="201.26" height="71.03" rx="12"/><text class="cls-5" transform="translate(667.24 239.9)">path input file</text><rect class="cls-3" x="619.8" y="199.04" width="201.26" height="71.03" rx="12"/><text class="cls-6" transform="translate(932.48 109.09)">E-mail user</text><rect class="cls-3" x="875.52" y="68.22" width="201.26" height="71.03" rx="12"/><text class="cls-5" transform="translate(1090.63 229.84)">wait for next <tspan x="-17.41" y="21.31">request (seconds)</tspan></text><rect class="cls-3" x="1038.3" y="198.44" width="201.26" height="71.03" rx="12"/><text class="cls-7" transform="translate(151.87 94.88)">T<tspan class="cls-8" x="10.05" y="0">erminal</tspan><tspan class="cls-8"><tspan x="-26.84" y="21.31">User and Folder</tspan></tspan></text><rect class="cls-3" x="84.99" y="64.67" width="201.26" height="71.03" rx="12"/><circle class="cls-3" cx="185.91" cy="30.93" r="23.68"/><circle class="cls-3" cx="391.31" cy="299.07" r="23.68"/><circle class="cls-3" cx="528.05" cy="32.7" r="23.68"/><circle class="cls-3" cx="720.43" cy="299.07" r="23.68"/><circle class="cls-3" cx="1138.93" cy="299.07" r="23.68"/><text class="cls-9" transform="translate(178.02 39.7)">1</text><text class="cls-9" transform="translate(383.82 309.05)">2</text><text class="cls-9" transform="translate(521.15 42.69)">3</text><text class="cls-10" transform="translate(712.94 309.05)">4</text><circle class="cls-3" cx="976.74" cy="37.44" r="23.68"/><text class="cls-10" transform="translate(969.24 46.83)">5</text><text class="cls-10" transform="translate(1131.43 309.05)">6</text></svg>